<svg xmlns="http://www.w3.org/2000/svg" viewBox="0 0 500 500"><g id="freepik--Floor--inject-337"><path id="freepik--floor--inject-337" d="M88.17,449.3C-1.2,397.7-1.2,314,88.17,262.44s234.28-51.6,323.66,0,89.37,135.26,0,186.86S177.55,500.9,88.17,449.3Z" style="fill:#fafafa"></path></g><g id="freepik--Shadows--inject-337"><ellipse id="freepik--Shadow--inject-337" cx="304.78" cy="351.34" rx="77.4" ry="44.69" style="fill:#e6e6e6"></ellipse><path id="freepik--shadow--inject-337" d="M36.66,418.23c-11.61,6.71-11.61,17.58,0,24.29s30.45,6.7,42.06,0,11.62-17.58,0-24.29S48.27,411.53,36.66,418.23Z" style="fill:#e6e6e6"></path><ellipse id="freepik--shadow--inject-337" cx="404.56" cy="409.3" rx="76.03" ry="43.89" style="fill:#e6e6e6"></ellipse><path id="freepik--shadow--inject-337" d="M217.81,350.49,65,438.69c-1.78,1-1.78,2.71,0,3.74l23.93,13.78a7.16,7.16,0,0,0,6.47,0L248.21,368c1.79-1,1.79-2.71,0-3.74l-23.92-13.78A7.18,7.18,0,0,0,217.81,350.49Z" style="fill:#e6e6e6"></path><path id="freepik--shadow--inject-337" d="M230.69,364.86,97.45,441.73c-1.42.82-1.42,2.14,0,2.95l18.89,10.88a5.61,5.61,0,0,0,5.11,0l133.24-76.87c1.41-.81,1.41-2.13,0-2.95L235.8,364.86A5.68,5.68,0,0,0,230.69,364.86Z" style="fill:#e6e6e6"></path></g><g id="freepik--Windows--inject-337"><g id="freepik--Window--inject-337"><g id="freepik--window--inject-337"><polygon points="21.94 262.56 25.37 262.79 84.79 228.49 83.07 227.24 21.94 262.56" style="fill:#C53F3F"></polygon><g style="opacity:0.85"><polygon points="21.94 262.56 25.37 262.79 84.79 228.49 83.07 227.24 21.94 262.56" style="fill:#fff"></polygon></g><polygon points="83.07 227.24 25.37 260.58 25.37 109.38 83.07 76.04 83.07 227.24" style="fill:#C53F3F"></polygon><polygon points="83.07 227.24 25.37 260.58 25.37 109.38 83.07 76.04 83.07 227.24" style="fill:#fff;opacity:0.9500000000000001"></polygon><path d="M88.21,69.13,21.94,107.4V268.73l66.28-38.27ZM84.79,228.49l-59.42,34.3V109.38L84.79,75.07Z" style="fill:#C53F3F"></path><g style="opacity:0.6000000000000001"><path d="M88.21,69.13,21.94,107.4V268.73l66.28-38.27ZM84.79,228.49l-59.42,34.3V109.38L84.79,75.07Z" style="fill:#fff"></path></g><polygon points="84.79 228.49 83.07 227.24 83.07 76.04 84.79 75.07 84.79 228.49" style="fill:#C53F3F"></polygon><g style="opacity:0.6000000000000001"><polygon points="84.79 228.49 83.07 227.24 83.07 76.04 84.79 75.07 84.79 228.49" style="fill:#fff"></polygon></g><g style="opacity:0.1"><polygon points="84.79 228.49 83.07 227.24 83.07 76.04 84.79 75.07 84.79 228.49"></polygon></g><polygon points="88.21 69.14 86.5 68.15 20.23 106.41 21.94 107.4 88.21 69.14" style="fill:#C53F3F"></polygon><g style="opacity:0.85"><polygon points="88.21 69.14 86.5 68.15 20.23 106.41 21.94 107.4 88.21 69.14" style="fill:#fff"></polygon></g><polygon points="20.23 106.41 21.94 107.4 21.94 268.73 20.23 267.74 20.23 106.41" style="fill:#C53F3F"></polygon><g style="opacity:0.6000000000000001"><polygon points="20.23 106.41 21.94 107.4 21.94 268.73 20.23 267.74 20.23 106.41" style="fill:#fff"></polygon></g><g style="opacity:0.1"><polygon points="20.23 106.41 21.94 107.4 21.94 268.73 20.23 267.74 20.23 106.41"></polygon></g><polygon points="25.37 184.8 83.07 151.43 84.79 152.46 25.37 186.76 25.37 184.8" style="fill:#C53F3F"></polygon><g style="opacity:0.85"><polygon points="25.37 184.8 83.07 151.43 84.79 152.46 25.37 186.76 25.37 184.8" style="fill:#fff"></polygon></g><polygon points="84.79 152.46 84.79 156.29 25.37 190.59 25.37 186.76 84.79 152.46" style="fill:#C53F3F"></polygon><polyline points="84.79 152.46 84.79 156.29 25.37 190.59 25.37 186.76" style="fill:#fff;opacity:0.6000000000000001"></polyline></g><g id="freepik--Blinds--inject-337"><polygon points="25.37 112.24 83.07 78.92 83.97 82.93 25.37 116.81 25.37 112.24" style="fill:#f0f0f0"></polygon><polygon points="25.37 112.24 25.37 114.08 83.43 80.51 83.07 78.92 25.37 112.24" style="fill:#e0e0e0"></polygon><polygon points="25.37 118.64 83.07 85.31 83.97 89.32 25.37 123.2 25.37 118.64" style="fill:#f0f0f0"></polygon><polygon points="25.37 118.64 25.37 120.47 83.43 86.9 83.07 85.31 25.37 118.64" style="fill:#e0e0e0"></polygon><polygon points="25.37 125.03 83.07 91.7 83.97 95.72 25.37 129.6 25.37 125.03" style="fill:#f0f0f0"></polygon><polygon points="25.37 125.03 25.37 126.86 83.43 93.3 83.07 91.7 25.37 125.03" style="fill:#e0e0e0"></polygon><polygon points="25.37 131.42 83.07 98.1 83.97 102.11 25.37 135.99 25.37 131.42" style="fill:#f0f0f0"></polygon><polygon points="25.37 131.42 25.37 133.26 83.43 99.69 83.07 98.1 25.37 131.42" style="fill:#e0e0e0"></polygon><polygon points="25.37 137.81 83.07 104.49 83.97 108.5 25.37 142.38 25.37 137.81" style="fill:#f0f0f0"></polygon><polygon points="25.37 137.81 25.37 139.65 83.43 106.08 83.07 104.49 25.37 137.81" style="fill:#e0e0e0"></polygon><polygon points="25.37 144.21 83.07 110.88 83.97 114.9 25.37 148.78 25.37 144.21" style="fill:#f0f0f0"></polygon><polygon points="25.37 144.21 25.37 146.04 83.43 112.48 83.07 110.88 25.37 144.21" style="fill:#e0e0e0"></polygon><polygon points="25.37 150.6 83.07 117.28 83.97 121.29 25.37 155.17 25.37 150.6" style="fill:#f0f0f0"></polygon><polygon points="25.37 150.6 25.37 152.44 83.43 118.87 83.07 117.28 25.37 150.6" style="fill:#e0e0e0"></polygon><polygon points="25.37 156.99 83.07 123.67 83.97 127.68 25.37 161.56 25.37 156.99" style="fill:#f0f0f0"></polygon><polygon points="25.37 156.99 25.37 158.83 83.43 125.26 83.07 123.67 25.37 156.99" style="fill:#e0e0e0"></polygon><polygon points="25.37 163.39 83.07 130.06 83.97 134.07 25.37 167.96 25.37 163.39" style="fill:#f0f0f0"></polygon><polygon points="25.37 163.39 25.37 165.22 83.43 131.66 83.07 130.06 25.37 163.39" style="fill:#e0e0e0"></polygon><polygon points="25.37 169.78 83.07 136.45 83.97 140.47 25.37 174.35 25.37 169.78" style="fill:#f0f0f0"></polygon><polygon points="25.37 169.78 25.37 171.62 83.43 138.05 83.07 136.45 25.37 169.78" style="fill:#e0e0e0"></polygon></g></g><g id="freepik--window--inject-337"><g id="freepik--window--inject-337"><polygon points="114.72 208.99 118.15 209.22 177.57 174.92 175.86 173.67 114.72 208.99" style="fill:#C53F3F"></polygon><g style="opacity:0.85"><polygon points="114.72 208.99 118.15 209.22 177.57 174.92 175.86 173.67 114.72 208.99" style="fill:#fff"></polygon></g><polygon points="175.86 173.67 118.15 207.01 118.15 55.81 175.86 22.47 175.86 173.67" style="fill:#C53F3F"></polygon><polygon points="175.86 173.67 118.15 207.01 118.15 55.81 175.86 22.47 175.86 173.67" style="fill:#fff;opacity:0.9500000000000001"></polygon><path d="M181,15.57,114.72,53.83V215.16L181,176.89Zm-3.43,159.35-59.42,34.3V55.81L177.57,21.5Z" style="fill:#C53F3F"></path><g style="opacity:0.6000000000000001"><path d="M181,15.57,114.72,53.83V215.16L181,176.89Zm-3.43,159.35-59.42,34.3V55.81L177.57,21.5Z" style="fill:#fff"></path></g><polygon points="177.57 174.92 175.86 173.67 175.86 22.47 177.57 21.5 177.57 174.92" style="fill:#C53F3F"></polygon><g style="opacity:0.6000000000000001"><polygon points="177.57 174.92 175.86 173.67 175.86 22.47 177.57 21.5 177.57 174.92" style="fill:#fff"></polygon></g><g style="opacity:0.1"><polygon points="177.57 174.92 175.86 173.67 175.86 22.47 177.57 21.5 177.57 174.92"></polygon></g><polygon points="181 15.57 179.29 14.58 113.01 52.84 114.72 53.83 181 15.57" style="fill:#C53F3F"></polygon><g style="opacity:0.85"><polygon points="181 15.57 179.29 14.58 113.01 52.84 114.72 53.83 181 15.57" style="fill:#fff"></polygon></g><polygon points="113.01 52.84 114.72 53.83 114.72 215.16 113.01 214.17 113.01 52.84" style="fill:#C53F3F"></polygon><g style="opacity:0.6000000000000001"><polygon points="113.01 52.84 114.72 53.83 114.72 215.16 113.01 214.17 113.01 52.84" style="fill:#fff"></polygon></g><g style="opacity:0.1"><polygon points="113.01 52.84 114.72 53.83 114.72 215.16 113.01 214.17 113.01 52.84"></polygon></g><polygon points="118.15 131.23 175.85 97.86 177.57 98.89 118.15 133.19 118.15 131.23" style="fill:#C53F3F"></polygon><g style="opacity:0.85"><polygon points="118.15 131.23 175.85 97.86 177.57 98.89 118.15 133.19 118.15 131.23" style="fill:#fff"></polygon></g><polygon points="177.57 98.89 177.57 102.72 118.15 137.03 118.15 133.19 177.57 98.89" style="fill:#C53F3F"></polygon><polyline points="177.57 98.89 177.57 102.72 118.15 137.03 118.15 133.19" style="fill:#fff;opacity:0.6000000000000001"></polyline></g><g id="freepik--blinds--inject-337"><polygon points="118.15 58.67 175.86 25.35 176.76 29.36 118.15 63.24 118.15 58.67" style="fill:#f0f0f0"></polygon><polygon points="118.15 58.67 118.15 60.51 176.22 26.94 175.86 25.35 118.15 58.67" style="fill:#e0e0e0"></polygon><polygon points="118.15 65.07 175.86 31.74 176.76 35.76 118.15 69.64 118.15 65.07" style="fill:#f0f0f0"></polygon><polygon points="118.15 65.07 118.15 66.9 176.22 33.34 175.86 31.74 118.15 65.07" style="fill:#e0e0e0"></polygon><polygon points="118.15 71.46 175.86 38.13 176.76 42.15 118.15 76.03 118.15 71.46" style="fill:#f0f0f0"></polygon><polygon points="118.15 71.46 118.15 73.3 176.22 39.73 175.86 38.13 118.15 71.46" style="fill:#e0e0e0"></polygon><polygon points="118.15 77.85 175.86 44.53 176.76 48.54 118.15 82.42 118.15 77.85" style="fill:#f0f0f0"></polygon><polygon points="118.15 77.85 118.15 79.69 176.22 46.12 175.86 44.53 118.15 77.85" style="fill:#e0e0e0"></polygon><polygon points="118.15 84.25 175.86 50.92 176.76 54.93 118.15 88.81 118.15 84.25" style="fill:#f0f0f0"></polygon><polygon points="118.15 84.25 118.15 86.08 176.22 52.51 175.86 50.92 118.15 84.25" style="fill:#e0e0e0"></polygon><polygon points="118.15 90.64 175.86 57.31 176.76 61.33 118.15 95.21 118.15 90.64" style="fill:#f0f0f0"></polygon><polygon points="118.15 90.64 118.15 92.47 176.22 58.91 175.86 57.31 118.15 90.64" style="fill:#e0e0e0"></polygon><polygon points="118.15 97.03 175.86 63.71 176.76 67.72 118.15 101.6 118.15 97.03" style="fill:#f0f0f0"></polygon><polygon points="118.15 97.03 118.15 98.87 176.22 65.3 175.86 63.71 118.15 97.03" style="fill:#e0e0e0"></polygon><polygon points="118.15 103.42 175.86 70.1 176.76 74.11 118.15 107.99 118.15 103.42" style="fill:#f0f0f0"></polygon><polygon points="118.15 103.42 118.15 105.26 176.22 71.69 175.86 70.1 118.15 103.42" style="fill:#e0e0e0"></polygon><polygon points="118.15 109.82 175.86 76.49 176.76 80.51 118.15 114.39 118.15 109.82" style="fill:#f0f0f0"></polygon><polygon points="118.15 109.82 118.15 111.65 176.22 78.09 175.86 76.49 118.15 109.82" style="fill:#e0e0e0"></polygon><polygon points="118.15 116.21 175.86 82.89 176.76 86.9 118.15 120.78 118.15 116.21" style="fill:#f0f0f0"></polygon><polygon points="118.15 116.21 118.15 118.05 176.22 84.48 175.86 82.89 118.15 116.21" style="fill:#e0e0e0"></polygon></g></g></g><g id="freepik--Plant--inject-337"><g id="freepik--plant--inject-337"><g id="freepik--Pot--inject-337"><path d="M41.63,432.36C33,423.5,28,401.21,36.38,394.18H79c8.38,7,3.34,29.3-5.24,38.17l-.24.24-.29.3c-.25.23-.5.47-.78.7l-.21.16c-.21.16-.41.33-.64.49a10.58,10.58,0,0,1-1.12.72c-7.06,4.13-18.52,4.13-25.58,0h0a12.46,12.46,0,0,1-1.12-.72c-.22-.15-.41-.31-.61-.46l-.25-.2c-.27-.23-.51-.45-.75-.68l-.34-.34Z" style="fill:#37474f"></path><path d="M75.3,391.35C85,397,85,406.24,75.3,411.92s-25.49,5.68-35.22,0-9.73-14.89,0-20.57S65.58,385.67,75.3,391.35Z" style="fill:#455a64"></path><path d="M70.62,394.08c7.15,4.17,7.15,10.94,0,15.11s-18.72,4.17-25.86,0-7.15-10.94,0-15.11S63.48,389.91,70.62,394.08Z" style="fill:#263238"></path><path d="M44.76,401.25c7.14-4.17,18.72-4.17,25.86,0a11.85,11.85,0,0,1,4.28,4,11.85,11.85,0,0,1-4.28,4c-7.14,4.17-18.72,4.17-25.86,0a11.85,11.85,0,0,1-4.28-4A11.85,11.85,0,0,1,44.76,401.25Z" style="fill:#fafafa"></path></g><g id="freepik--Leaves--inject-337"><path d="M48,336.93c2,3.69-.8,10-6.74,11.09,1.86-2.6,3.49-6.66,2-7.23s.23,3.23-3.08,6.74c0,0-1.78.85-4.24-1.17,3.69-2.56,5.35-7.9,4-7.16-.52.3-1.44,2.95-3.65,4.61s-4.41,1.75-7.67-1c2-.32,4.83-1.08,6.47-3.08,1.18-1.43,1.54-2.35-1.17-.7s-3.57,2.35-6.13,2.24-4.77-2.81-4.77-2.81,4.19.43,5.16-.9-3.47.62-6.37-.59a17,17,0,0,1-4.82-3.07s1.41-3.33,2.4-4.13c2.17,1.66,4.88,4,5.3,3.5s-.45-2.24-3.68-3.86a2.81,2.81,0,0,1,2.63-2s1.66.26,4.09,4.62c.51.91,1.66,1.74-.34-1.78a11.53,11.53,0,0,0-3.15-3.88,4.44,4.44,0,0,1,5.49.57c4.73,4.06,4.9,6.06,5.6,5.77.26-.11-.11-1.15-1.89-3.68a15.14,15.14,0,0,0-3.33-3.59s2.06-2.36,5.38-.12,5.27,6.86,5.5,6.94c.61.22-.28-3.47-1.59-5.46s-1.89-2.71-1.89-2.71A4.93,4.93,0,0,1,43.12,326c2.39,3.13,2,7.69,2.77,7.47S45.3,326,45.3,326,52.24,332.43,48,336.93Z" style="fill:#C53F3F"></path><path d="M48,336.93c2,3.69-.8,10-6.74,11.09,1.86-2.6,3.49-6.66,2-7.23s.23,3.23-3.08,6.74c0,0-1.78.85-4.24-1.17,3.69-2.56,5.35-7.9,4-7.16-.52.3-1.44,2.95-3.65,4.61s-4.41,1.75-7.67-1c2-.32,4.83-1.08,6.47-3.08,1.18-1.43,1.54-2.35-1.17-.7s-3.57,2.35-6.13,2.24-4.77-2.81-4.77-2.81,4.19.43,5.16-.9-3.47.62-6.37-.59a17,17,0,0,1-4.82-3.07s1.41-3.33,2.4-4.13c2.17,1.66,4.88,4,5.3,3.5s-.45-2.24-3.68-3.86a2.81,2.81,0,0,1,2.63-2s1.66.26,4.09,4.62c.51.91,1.66,1.74-.34-1.78a11.53,11.53,0,0,0-3.15-3.88,4.44,4.44,0,0,1,5.49.57c4.73,4.06,4.9,6.06,5.6,5.77.26-.11-.11-1.15-1.89-3.68a15.14,15.14,0,0,0-3.33-3.59s2.06-2.36,5.38-.12,5.27,6.86,5.5,6.94c.61.22-.28-3.47-1.59-5.46s-1.89-2.71-1.89-2.71A4.93,4.93,0,0,1,43.12,326c2.39,3.13,2,7.69,2.77,7.47S45.3,326,45.3,326,52.24,332.43,48,336.93Z" style="opacity:0.2"></path><path d="M37.61,348.47c1.8-2.32,4.18-4.92,7.28-5.24s6,1.32,7.94,3.49a26.07,26.07,0,0,1,4.56,7.79,59.63,59.63,0,0,1,2.82,9.17c3,12.95,3.51,26.31,3,39.55,0,1-.09,2.06-.14,3.1h1.4l.09-1.6c.29-6.93.33-13.88-.07-20.81a120.23,120.23,0,0,0-2.85-20.52,61.85,61.85,0,0,0-3-9.7,25.87,25.87,0,0,0-4.78-7.91c-2.29-2.41-5.53-4.08-8.93-3.58s-5.61,3.28-7.5,6C37.4,348.32,37.51,348.6,37.61,348.47Z" style="fill:#455a64"></path><path d="M56.73,402.9q.35,3.19.59,6.4h1.55l-.18-2.49c-.58-7.21-1.58-14.38-2.65-21.54S53.85,371,53,363.85c-.41-3.47-.79-7-1-10.44a44.4,44.4,0,0,1,.37-9.91c.54-3.26,1.66-6.81,4-9.26s6.41-3.36,8.6-.42c0,0,0,0,0-.05-1.36-2.5-4.87-3.1-7.3-1.94-2.84,1.36-4.56,4.26-5.64,7.09-2.51,6.53-1.87,13.75-1.19,20.57C52.3,374,55.15,388.38,56.73,402.9Z" style="fill:#455a64"></path><path d="M48.35,380.78c.4,3.68.78,7.36,1,11.05.35,4.83.54,9.66.68,14.5h1.65l-.06-2.17a172.2,172.2,0,0,0-1.93-22c-.33-2.05-.79-4.09-1.21-6.13a60.64,60.64,0,0,0-1.61-6.51c-.07-.2-.26-.1-.24.08.23,1.85.64,3.68.94,5.52S48.14,378.9,48.35,380.78Z" style="fill:#455a64"></path><path d="M58.64,369c.72-3.14,6.18-7.69,15.81-7.84a25.19,25.19,0,0,1,10.06,2c-6.26.26-14.54,1.25-15,3.61s2.78.85,5.76-.31a35.81,35.81,0,0,1,10.56-2.66A18.91,18.91,0,0,1,94,369.1c-6.82-2.42-14.62-1.26-17.77.44s-3.06,3.12-.39,2.2,7.86-2.92,21.32,0c0,0,2.78,1.83,3.85,7.39-2.51-2.12-6.1-3-9.25-3.62a42.12,42.12,0,0,0-9.75-1c-.58,0-1.74.1-2,.71s.35,1.23.88,1.44a10.93,10.93,0,0,0,3.55.5c1.57,0,3.15.18,4.71.33a45.6,45.6,0,0,1,7.73,1.13c1.38.38,4.21,3.93,4.06,8-3.35-.6-10.4-4.62-15.32-4.12s.92,1.43,5,2.9c3.51,1.26,9.88,4,9.88,4a79.12,79.12,0,0,1-1.79,10,30.52,30.52,0,0,1-10.28.12S85.1,390,82.67,389.1s-.52,2.91,1.64,6.24,2.81,4.58,2.81,4.58-9.93,1.87-14-1.42c-.14-2,.11-7.33.16-10.84,0-3.71.88-6.81-.25-7.45s-2.2,2.32-2.86,6a40.8,40.8,0,0,0-.12,11s-7-1.27-9.38-3.25c-2.76-5.91.44-12.69,1.14-13.7s-.82-4.27-4.3.2a10.34,10.34,0,0,0-1.83,9.68s-5.08-.47-7.2-4.82C45.07,378.27,47.92,371,58.64,369Z" style="fill:#C53F3F"></path><path d="M58.64,369c.72-3.14,6.18-7.69,15.81-7.84a25.19,25.19,0,0,1,10.06,2c-6.26.26-14.54,1.25-15,3.61s2.78.85,5.76-.31a35.81,35.81,0,0,1,10.56-2.66A18.91,18.91,0,0,1,94,369.1c-6.82-2.42-14.62-1.26-17.77.44s-3.06,3.12-.39,2.2,7.86-2.92,21.32,0c0,0,2.78,1.83,3.85,7.39-2.51-2.12-6.1-3-9.25-3.62a42.12,42.12,0,0,0-9.75-1c-.58,0-1.74.1-2,.71s.35,1.23.88,1.44a10.93,10.93,0,0,0,3.55.5c1.57,0,3.15.18,4.71.33a45.6,45.6,0,0,1,7.73,1.13c1.38.38,4.21,3.93,4.06,8-3.35-.6-10.4-4.62-15.32-4.12s.92,1.43,5,2.9c3.51,1.26,9.88,4,9.88,4a79.12,79.12,0,0,1-1.79,10,30.52,30.52,0,0,1-10.28.12S85.1,390,82.67,389.1s-.52,2.91,1.64,6.24,2.81,4.58,2.81,4.58-9.93,1.87-14-1.42c-.14-2,.11-7.33.16-10.84,0-3.71.88-6.81-.25-7.45s-2.2,2.32-2.86,6a40.8,40.8,0,0,0-.12,11s-7-1.27-9.38-3.25c-2.76-5.91.44-12.69,1.14-13.7s-.82-4.27-4.3.2a10.34,10.34,0,0,0-1.83,9.68s-5.08-.47-7.2-4.82C45.07,378.27,47.92,371,58.64,369Z" style="opacity:0.25"></path><path d="M39.37,346.13c4.79-.74,11.57.48,15.05,4.4s3.66,8.63,2.64,11.06-2.21-3.72-5.86-6.68-5.41-2.74-2.31.37,7.12,8.78,7.7,12.39-2.85,7.59-3.92,7.3.22-4-1.45-9.19-5.14-8.72-7.86-9.56-2,.07,1.54,4.19,7.68,12.44,6,16.36-5.7,5.2-6.74,4.83,1.6-5.27-.36-11.68-6.23-11-8.56-9.59-.61,3.15,1.56,7.94,5,14.36,3.91,17.4-6.81,5-7.64,4.08,1.82-6.13.51-12.85-4.07-9.36-4.37-6.62,3.3,15.81,2.2,18-11.51,5.52-11.51,5.52S14.53,387,14.24,385s4.57-10.09,7.22-12.38-.65-2.53-2.77-1-6.88,7.41-7.28,10.45c-2.68-3.12-5-7.08-2.64-9.61s9.58-6.72,13.78-8.16,7.32-5.55,1.75-4.5-15.23,6.1-16.94,10c-.65-3.5.33-13.27,6.42-14.84s12.45-1.08,14.35-1.71S27.61,351,23,350.67s-10.73,0-13.12,2.95c.18-3.83.7-7.67,7.75-7.7S27.7,348.8,28.81,348s-4.38-3.74-8.47-4a9.62,9.62,0,0,1,10.12-3.22A16.2,16.2,0,0,1,39.37,346.13Z" style="fill:#C53F3F"></path><path d="M63.23,329.9c1.38-3.41,6.51-4.56,8.94-3.47-2.62.64-4.85,2.73-3.38,2.1,3.1-1.34,5-1.93,8.6-1.19a6.08,6.08,0,0,1,4.5,4,21.66,21.66,0,0,0-7.3-1.05c-1.18.07-4.31.55-.46.57,6.05,0,8.3,2.24,8.3,2.24a8.15,8.15,0,0,1,2.17,4.42c-3.14-3.41-8.29-4-10.2-4.2s-3.66.78-.51,1,8.88,2.48,10.61,5.65.41,8.07.41,8.07-7-9.84-9.68-8.71c-.06,1.49,7.42,6.51,8.66,9.29s-1.59,8.48-1.59,8.48-7-.53-8.75-1.72-1-8.79-2-9.95-3.59,4.63-2.44,9.64c0,0-3.48.47-4.11-2.28s.72-8.4,2.31-10.93-.91-2-2.23-.1S62,348,62.36,350.81c0,0-4-1.9-5-4.05s2.81-7.82,4.73-9.22.23-2.6-1.69-1.19-5.07,5.74-5.41,8c-2.05-3.92-2.2-8.88,1.31-12.45C60,328.08,63.23,329.9,63.23,329.9Z" style="fill:#C53F3F"></path></g></g></g><g id="freepik--Chair--inject-337"><g id="freepik--chair--inject-337"><path d="M363.33,336.16a1.62,1.62,0,0,1-1.16-.5L303.5,273.57l-58.56,61.82a1.6,1.6,0,0,1-2.32-2.2l59.73-63a1.59,1.59,0,0,1,1.16-.5h0a1.59,1.59,0,0,1,1.16.5l59.83,63.31a1.61,1.61,0,0,1-1.17,2.7Z" style="fill:#263238"></path><path d="M303.51,383.17a1.6,1.6,0,0,1-1.6-1.6V278.75a1.6,1.6,0,1,1,3.2,0V381.57A1.6,1.6,0,0,1,303.51,383.17Z" style="fill:#37474f"></path><path d="M367.12,345.74a1.6,1.6,0,0,1-1.49-1l-31.52-79.8a1.6,1.6,0,1,1,3-1.18l31.53,79.81a1.6,1.6,0,0,1-.9,2.07A1.51,1.51,0,0,1,367.12,345.74Z" style="fill:#37474f"></path><path d="M239.89,345.74a1.59,1.59,0,0,1-1.48-2.18l31.52-79.81a1.6,1.6,0,1,1,3,1.18l-31.53,79.8A1.6,1.6,0,0,1,239.89,345.74Z" style="fill:#37474f"></path><path d="M365,333.69l4.17,11a1.41,1.41,0,0,1,0,.28.67.67,0,0,1,0,.2,1.27,1.27,0,0,1-.62.7,2.84,2.84,0,0,1-2.54,0,1,1,0,0,1-.49-.52s0,0,0,0l0-.15-3.87-10.31Z" style="fill:#C53F3F"></path><path d="M242.07,333.69l-4.17,11a1,1,0,0,0,0,.28.67.67,0,0,0,0,.2,1.29,1.29,0,0,0,.63.7,2.82,2.82,0,0,0,2.53,0,1.12,1.12,0,0,0,.5-.52v0l0-.15,3.86-10.31Z" style="fill:#C53F3F"></path><path d="M305.35,373.61v9.1a.92.92,0,0,1-.54.75,2.92,2.92,0,0,1-2.61,0,.92.92,0,0,1-.54-.75v-9.1A3.89,3.89,0,0,1,305.35,373.61Z" style="fill:#C53F3F"></path><g id="freepik--chair--inject-337"><path d="M240.36,183.21a39.9,39.9,0,0,0-2.83,12.42c-.81,9.53,2.28,44.72,4.21,58.51h0c2.8,23,6.23,23.08,11.22,26.94,8.59,6.63,33.28,19.63,41.44,22.84,14.78,5.82,26.86-3.15,35.87-7.6s25.94-14.49,29.73-17.24c2.25-1.64,3.42-3.3,3.39-5,0-.69,0-3.52,0-4.25,0-2.23-2-4.61-6.1-7.29-7.63-4.95-35.22-21.05-45.91-27a.12.12,0,0,0-.09-.09c-8.23-5-13-43.3-18.74-61.36-.12-.38-.24-.76-.36-1.12s-.2-.57-.3-.84c-.36-1-.73-1.88-1.12-2.7" style="fill:#C53F3F"></path><path d="M363.4,269.78c0-2.23-2-4.61-6.1-7.29-7.63-4.95-35.22-21.05-45.91-27a.12.12,0,0,0-.09-.09c-8.23-5-13-43.3-18.74-61.36a32.66,32.66,0,0,0-1.19-3.32l-.1-.24c-.11-.24-.21-.49-.33-.74l-.16-.36h0a17.26,17.26,0,0,0-3.8-5.49,8.47,8.47,0,0,0-1.86-1.31l-3.36-1.89c-5.59-3.34-18.78,3.78-27.92,8.78-5.68,3.11-10.52,6.82-13.47,13.71h0a39.9,39.9,0,0,0-2.83,12.42c-.81,9.53,2.28,44.72,4.21,58.51h0c2.8,23,6.23,23.08,11.22,26.94,8.59,6.63,33.28,19.63,41.44,22.84,14.78,5.82,26.86-3.15,35.87-7.6s25.94-14.49,29.73-17.24c2.25-1.64,3.42-3.3,3.39-5C363.38,273.34,363.4,270.51,363.4,269.78Z" style="fill:#C53F3F"></path><path d="M363.4,269.78c0-2.23-2-4.61-6.1-7.29-7.63-4.95-35.22-21.05-45.91-27a.12.12,0,0,0-.09-.09c-8.23-5-13-43.3-18.74-61.36a32.66,32.66,0,0,0-1.19-3.32l-.1-.24c-.11-.24-.21-.49-.33-.74l-.16-.36h0a17.26,17.26,0,0,0-3.8-5.49,8.47,8.47,0,0,0-1.86-1.31l-3.36-1.89c-5.59-3.34-18.78,3.78-27.92,8.78-5.68,3.11-10.52,6.82-13.47,13.71h0a39.9,39.9,0,0,0-2.83,12.42c-.81,9.53,2.28,44.72,4.21,58.51h0c2.8,23,6.23,23.08,11.22,26.94,8.59,6.63,33.28,19.63,41.44,22.84,14.78,5.82,26.86-3.15,35.87-7.6s25.94-14.49,29.73-17.24c2.25-1.64,3.42-3.3,3.39-5C363.38,273.34,363.4,270.51,363.4,269.78Z" style="fill:#fff;opacity:0.15"></path><path d="M330.27,292c9-4.45,25.94-14.5,29.73-17.25,5.12-3.72,4.65-7.53-2.69-12.29-10.21-6.62-51.79-30.21-51.79-30.21s-58.44,34.13-56.18,39.86,34.8,23.45,45,27.48C309.18,305.44,321.26,296.47,330.27,292Z" style="fill:#C53F3F"></path><g style="opacity:0.4"><path d="M330.27,292c9-4.45,25.94-14.5,29.73-17.25,5.12-3.72,4.65-7.53-2.69-12.29-10.21-6.62-51.79-30.21-51.79-30.21s-58.44,34.13-56.18,39.86,34.8,23.45,45,27.48C309.18,305.44,321.26,296.47,330.27,292Z" style="fill:#fff"></path></g><path d="M285.11,162.61c-5.54-2.91-18.6,4.15-27.49,9-5.7,3.13-10.56,6.83-13.51,13.76l-3.75-2.18c2.95-6.89,7.79-10.6,13.47-13.71,9.14-5,22.33-12.12,27.92-8.78Z" style="fill:#C53F3F"></path><path d="M285.11,162.61c-5.54-2.91-18.6,4.15-27.49,9-5.7,3.13-10.56,6.83-13.51,13.76l-3.75-2.18c2.95-6.89,7.79-10.6,13.47-13.71,9.14-5,22.33-12.12,27.92-8.78Z" style="fill:#fff;opacity:0.4"></path><path d="M292.56,174.07c-.12-.38-2-7-5.59-10.15a9,9,0,0,0-6.05-2.31c-4.83,0-16.5,6.3-23.3,10-.57.32-1.13.64-1.68,1l-.64.37-.75.47-.55.36a33.46,33.46,0,0,0-3.42,2.6c-.18.16-.35.31-.52.48a21.73,21.73,0,0,0-1.94,2c-.11.13-.23.26-.33.39l-.38.48-.38.49-.36.51a24.85,24.85,0,0,0-1.36,2.17l-.16.29c-.11.2-.22.41-.32.62s-.3.61-.44.91a39.41,39.41,0,0,0-3.08,13c-1.32,15.64,3.9,71.7,9.28,76.16,0,0,1.14-4.67,10-11.87A193.67,193.67,0,0,1,287.81,244c18-10.13,23.49-8.54,23.49-8.54C303.07,230.44,298.26,192.13,292.56,174.07Z" style="fill:#C53F3F"></path><g style="opacity:0.2"><path d="M292.56,174.07c-.12-.38-2-7-5.59-10.15a9,9,0,0,0-6.05-2.31c-4.83,0-16.5,6.3-23.3,10-.57.32-1.13.64-1.68,1l-.64.37-.75.47-.55.36a33.46,33.46,0,0,0-3.42,2.6c-.18.16-.35.31-.52.48a21.73,21.73,0,0,0-1.94,2c-.11.13-.23.26-.33.39l-.38.48-.38.49-.36.51a24.85,24.85,0,0,0-1.36,2.17l-.16.29c-.11.2-.22.41-.32.62s-.3.61-.44.91a39.41,39.41,0,0,0-3.08,13c-1.32,15.64,3.9,71.7,9.28,76.16,0,0,1.14-4.67,10-11.87A193.67,193.67,0,0,1,287.81,244c18-10.13,23.49-8.54,23.49-8.54C303.07,230.44,298.26,192.13,292.56,174.07Z" style="fill:#fff"></path></g></g></g></g><g id="freepik--Device--inject-337"><g id="freepik--Mobile--inject-337"><path d="M235.33,359.72V52.79c0-7.9-3.92-10.07-7.41-12.09s-9.22-3.23-14.17-.37L87,113.51c-5,2.85-9,9.81-9,15.52V436c0,5.71,3.59,9.08,7.07,11.09s9.56,4.22,14.51,1.37l126.74-73.18A16.85,16.85,0,0,0,235.33,359.72Z" style="fill:#37474f"></path><path d="M227.27,362.62,96.94,437.87l0-308.26L80.67,120.2A18.32,18.32,0,0,0,78.05,129V436c0,5.71,3.59,9.08,7.07,11.09s9.56,4.22,14.51,1.37l126.74-73.18a17.09,17.09,0,0,0,7.76-8.66l-.51-.29Z" style="fill:#263238"></path><path d="M226.13,50.14,99,123.53a13.91,13.91,0,0,0-6.3,10.88V438.85c0,6.13,4.36,8.64,9.68,5.57L226.13,373a15.8,15.8,0,0,0,7.13-12.34V54.25C233.26,49.72,230.05,47.87,226.13,50.14Z" style="fill:#455a64"></path><path d="M227.06,68.8V353.38a15,15,0,0,1-6.77,11.74L105.7,431.27c-3.73,2.18-6.77.43-6.77-3.9V140.71a15.13,15.13,0,0,1,4.76-10.21l.64-.58a11.92,11.92,0,0,1,1.37-.94l32.23-18.61,2.1-1.21c1.16-.67,2.11-.14,2.11,1.21s1,1.85,2.24,1.13l37.56-21.69a4.83,4.83,0,0,0,2.25-3.71,4.77,4.77,0,0,1,1.88-3.52l.22-.14,31.53-18.19.67-.39C223.21,61.13,227.06,63.36,227.06,68.8Z"></path><path d="M210.46,357.52a15,15,0,0,0,6.76-11.74V64.59L186.29,82.44l-.22.14a4.77,4.77,0,0,0-1.88,3.52,4.83,4.83,0,0,1-2.25,3.71L144.38,111.5c-1.24.72-2.24.2-2.24-1.13s-.95-1.88-2.11-1.21l-2.1,1.21L105.7,129a11.92,11.92,0,0,0-1.37.94l-.64.58a15.13,15.13,0,0,0-4.76,10.21v281.2Z" style="fill:#263238"></path><path d="M150.08,100,167.3,90.1c1-.59,1.86-.17,1.86.94a4,4,0,0,1-1.86,3.09l-17.22,9.94c-1,.6-1.86.17-1.86-.94A4,4,0,0,1,150.08,100Z" style="fill:#263238"></path><path d="M176.14,84.18c1.16-.66,2.09-.12,2.09,1.21A4.6,4.6,0,0,1,176.14,89c-1.16.67-2.1.13-2.1-1.21A4.64,4.64,0,0,1,176.14,84.18Z" style="fill:#263238"></path><path d="M89.81,165.85a7.59,7.59,0,0,0-3.32-6,2.18,2.18,0,0,0-2.27-.18c-.41.25-2,1.16-2.48,1.42a2.58,2.58,0,0,0-1,2.35v25a7.58,7.58,0,0,0,3.31,6,2.22,2.22,0,0,0,2.19.23c.46-.24,2.13-1.21,2.56-1.46a2.61,2.61,0,0,0,1-2.36Z" style="fill:#455a64"></path><path d="M87.34,167.27v25c0,2.26-1.48,3.22-3.31,2.17a7.58,7.58,0,0,1-3.31-6v-25c0-2.25,1.48-3.22,3.31-2.17A7.58,7.58,0,0,1,87.34,167.27Z" style="fill:#37474f"></path><path d="M89.81,209.62a7.59,7.59,0,0,0-3.32-6,2.18,2.18,0,0,0-2.27-.18c-.41.25-2,1.16-2.48,1.42a2.59,2.59,0,0,0-1,2.35v25a7.58,7.58,0,0,0,3.31,6,2.22,2.22,0,0,0,2.19.23c.46-.24,2.13-1.2,2.56-1.46a2.61,2.61,0,0,0,1-2.36Z" style="fill:#455a64"></path><path d="M87.34,211.05v25c0,2.26-1.48,3.23-3.31,2.17a7.58,7.58,0,0,1-3.31-6v-25c0-2.25,1.48-3.22,3.31-2.16A7.55,7.55,0,0,1,87.34,211.05Z" style="fill:#37474f"></path></g></g><g id="freepik--Screen--inject-337"><g id="freepik--window--inject-337"><path d="M237.43,71.33c-1.58-.91-3.74-.78-6.13.6l-.68.4-32,18.47-.22.13a4.86,4.86,0,0,0-1.91,3.58,4.91,4.91,0,0,1-2.28,3.77l-38.13,22s-.06,0-.08,0a1.5,1.5,0,0,0-.63-1.3l-2.2-1.27a1.47,1.47,0,0,0-1.5.16l-2.14,1.22L116.81,138a10.46,10.46,0,0,0-1.4,1l-.65.59a15.35,15.35,0,0,0-4.82,10.36v291c0,2.19.76,3.72,2,4.44l2.22,1.28c1.24.72,3,.62,4.85-.49L235.33,379a15.25,15.25,0,0,0,6.87-11.92V78.22c0-2.76-1-4.7-2.54-5.61Z" style="fill:#C53F3F"></path><path d="M119.66,445.23v.57l-.65.37c-1.89,1.1-3.61,1.21-4.85.5l-2.22-1.29c-1.24-.72-2-2.25-2-4.44v-291a14.24,14.24,0,0,1,2.37-7.34l2.62,1.51a13.91,13.91,0,0,0-2.3,7.1v291a5.31,5.31,0,0,0,.94,3.32,2.94,2.94,0,0,0,2.36,1.11,5.77,5.77,0,0,0,2.83-.89Z" style="opacity:0.30000000000000004"></path><path d="M200,93.55a4.05,4.05,0,0,0-.8,2.23,4.88,4.88,0,0,1-.85,2.55l-2.64-1.52a4.38,4.38,0,0,0,.8-2.3,4.64,4.64,0,0,1,.86-2.48Z" style="opacity:0.30000000000000004"></path><path d="M115.93,446.63a2.92,2.92,0,0,1-2.36-1.1,5.29,5.29,0,0,1-.94-3.32v-291a15,15,0,0,1,4.66-10l.21-.19.43-.39a10.65,10.65,0,0,1,1.32-.9L152,120.84l2.13-1.23a1.5,1.5,0,0,1,.72-.23c.62,0,.68.72.68,1a1.75,1.75,0,0,0,1.7,2,2.61,2.61,0,0,0,1.32-.4l38.13-22a5.36,5.36,0,0,0,2.52-4.19,4.34,4.34,0,0,1,1.71-3.18l.18-.11,32-18.47.69-.4a7.39,7.39,0,0,1,3.62-1.11c2.68,0,4.34,2.19,4.34,5.71V367.1a14.63,14.63,0,0,1-6.63,11.49L118.77,445.75A5.81,5.81,0,0,1,115.93,446.63Z" style="fill:#fafafa"></path><path d="M112.63,407.44v34.77a5.29,5.29,0,0,0,.94,3.32,2.92,2.92,0,0,0,2.36,1.1,5.81,5.81,0,0,0,2.84-.88l116.31-67.16a14.63,14.63,0,0,0,6.63-11.49V332.91Z" style="fill:#e0e0e0"></path><ellipse cx="177.15" cy="390.24" rx="8.09" ry="4.58" transform="translate(-251.29 400.44) rotate(-66.95)" style="fill:#fafafa"></ellipse><path d="M137.12,419.16l-7.28-.35c-.8,0-.8-1.56,0-2.52l7.28-8.75c.7-.83,1.49-.62,1.49.4V417C138.61,418.06,137.82,419.19,137.12,419.16Z" style="fill:#fafafa"></path><path d="M223.88,364.1a8.46,8.46,0,0,0,.05-.87,6.91,6.91,0,0,0-.05-.81l1.15-1.56a.54.54,0,0,0,.09-.52l-1-1.79c-.07-.12-.23-.08-.35.08l-1.17,1.55a2.06,2.06,0,0,0-1.08-.21V358.2c0-.2-.12-.29-.26-.2l-2.08,1.2a.62.62,0,0,0-.26.5v1.77a8.5,8.5,0,0,0-1.08,1.46l-1.16-.21c-.13,0-.29.13-.36.33l-1,3c-.07.19,0,.38.1.4l1.16.23a8.48,8.48,0,0,0-.06.87,6.69,6.69,0,0,0,.06.81l-1.16,1.56a.58.58,0,0,0-.1.55l1,1.77c.07.14.23.1.36-.07l1.16-1.56a2,2,0,0,0,1.08.21v1.77c0,.2.12.29.26.2l2.08-1.19a.66.66,0,0,0,.26-.51v-1.77a9.05,9.05,0,0,0,1.08-1.46l1.17.22c.12,0,.28-.12.35-.34l1-3c.07-.22,0-.41-.09-.44Zm-3.7,3.94c-1.1.64-2,0-2-1.5a4.74,4.74,0,0,1,2-3.79c1.1-.64,2,0,2,1.5A4.74,4.74,0,0,1,220.18,368Z" style="fill:#fafafa"></path><path d="M237.37,72.51a7.39,7.39,0,0,0-3.62,1.11l-.69.4-32,18.47-.18.11a4.34,4.34,0,0,0-1.71,3.18,5.36,5.36,0,0,1-2.52,4.19l-38.13,22a2.61,2.61,0,0,1-1.32.4,1.75,1.75,0,0,1-1.7-2c0-.31-.06-1-.68-1a1.5,1.5,0,0,0-.72.23L152,120.84l-32.72,18.89a10.65,10.65,0,0,0-1.32.9l-.43.39-.21.19a15,15,0,0,0-4.66,10V185.4l129.08-74.54V78.22C241.71,74.7,240.05,72.51,237.37,72.51Z" style="fill:#C53F3F"></path><g style="opacity:0.30000000000000004"><path d="M237.37,72.51a7.39,7.39,0,0,0-3.62,1.11l-.69.4-32,18.47-.18.11a4.34,4.34,0,0,0-1.71,3.18,5.36,5.36,0,0,1-2.52,4.19l-38.13,22a2.61,2.61,0,0,1-1.32.4,1.75,1.75,0,0,1-1.7-2c0-.31-.06-1-.68-1a1.5,1.5,0,0,0-.72.23L152,120.84l-32.72,18.89a10.65,10.65,0,0,0-1.32.9l-.43.39-.21.19a15,15,0,0,0-4.66,10V185.4l129.08-74.54V78.22C241.71,74.7,240.05,72.51,237.37,72.51Z" style="fill:#fff"></path></g><path d="M121.94,151.31a.49.49,0,0,1,0,.19.44.44,0,0,1-.13.14l-.26.15a.11.11,0,0,1-.12,0,.17.17,0,0,1,0-.13V147l-1,1.64a.32.32,0,0,1-.13.13.16.16,0,0,1-.12,0l-.15-.18a.21.21,0,0,1,0-.15.49.49,0,0,1,.07-.19L121.3,146a.63.63,0,0,1,.1-.12l.1-.06.26-.15a.12.12,0,0,1,.13,0,.18.18,0,0,1,0,.14Z" style="fill:#fafafa"></path><path d="M124.63,149.76a.38.38,0,0,1-.06.19.26.26,0,0,1-.12.13l-.26.16a.13.13,0,0,1-.12,0,.14.14,0,0,1,0-.13v-4.7l-1,1.65q-.06.1-.12.12a.1.1,0,0,1-.12,0l-.15-.17a.21.21,0,0,1,0-.15.44.44,0,0,1,.07-.19l1.37-2.19a.4.4,0,0,1,.1-.12l.1-.06.26-.16a.13.13,0,0,1,.12,0,.15.15,0,0,1,.06.13Z" style="fill:#fafafa"></path><path d="M126.13,145.1a.13.13,0,0,1,.12,0,.15.15,0,0,1,.06.13v.57a.39.39,0,0,1-.06.2.26.26,0,0,1-.12.13l-.43.25a.09.09,0,0,1-.12,0,.16.16,0,0,1,0-.13v-.57a.45.45,0,0,1,0-.19.43.43,0,0,1,.12-.14Zm0,3a.13.13,0,0,1,.12,0,.15.15,0,0,1,.06.13v.58a.38.38,0,0,1-.06.19.33.33,0,0,1-.12.14l-.43.24a.09.09,0,0,1-.12,0,.16.16,0,0,1,0-.13v-.57a.45.45,0,0,1,0-.19.43.43,0,0,1,.12-.14Z" style="fill:#fafafa"></path><path d="M127.61,146.71a.51.51,0,0,0,.37.42.87.87,0,0,0,.65-.14,1.87,1.87,0,0,0,.72-.72,2.38,2.38,0,0,0,.22-.51,2.27,2.27,0,0,0,.08-.59,1.32,1.32,0,0,0-.08-.49.45.45,0,0,0-.54-.31,1.16,1.16,0,0,0-.4.15,1.81,1.81,0,0,0-.39.3,2.64,2.64,0,0,0-.23.29,2.79,2.79,0,0,0-.17.25.55.55,0,0,1-.17.17l-.32.18s-.08,0-.1,0a.13.13,0,0,1,0-.11l.2-3a.36.36,0,0,1,0-.19.33.33,0,0,1,.12-.14l2.25-1.3c.05,0,.09,0,.12,0a.15.15,0,0,1,.06.13v.31a.35.35,0,0,1-.06.19.33.33,0,0,1-.12.14L128,142.86l-.11,1.53.3-.3a2.17,2.17,0,0,1,.47-.33,1.57,1.57,0,0,1,.63-.23.82.82,0,0,1,.52.1.86.86,0,0,1,.34.42,1.9,1.9,0,0,1,.13.77,3.08,3.08,0,0,1-.13.91,3.55,3.55,0,0,1-.86,1.53,3.22,3.22,0,0,1-.63.5,1.84,1.84,0,0,1-.61.23,1,1,0,0,1-.51,0,.7.7,0,0,1-.36-.32,1.33,1.33,0,0,1-.14-.57.33.33,0,0,1,0-.16.25.25,0,0,1,.09-.11l.3-.17a.09.09,0,0,1,.1,0S127.6,146.65,127.61,146.71Z" style="fill:#fafafa"></path><path d="M131.4,144.64a2,2,0,0,0,.08.22.32.32,0,0,0,.18.14.5.5,0,0,0,.3,0,2,2,0,0,0,.49-.21,2.47,2.47,0,0,0,.38-.28,2.85,2.85,0,0,0,.31-.38,2.11,2.11,0,0,0,.21-.46,1.59,1.59,0,0,0,.08-.53,1,1,0,0,0-.07-.42.35.35,0,0,0-.21-.19.55.55,0,0,0-.31,0,2.2,2.2,0,0,0-.39.18l-.53.3a.11.11,0,0,1-.12,0s-.05-.07-.05-.14v-.3a.45.45,0,0,1,0-.16l.07-.16L133,140,131.16,141s-.09,0-.12,0a.14.14,0,0,1,0-.13v-.31a.36.36,0,0,1,0-.19.28.28,0,0,1,.12-.14l2.52-1.45a.09.09,0,0,1,.12,0,.16.16,0,0,1,0,.13v.31a.5.5,0,0,1,0,.16,1.63,1.63,0,0,1-.09.19l-1.13,2.28a1.58,1.58,0,0,1,.59-.2.67.67,0,0,1,.45.08.76.76,0,0,1,.29.38,1.75,1.75,0,0,1,.11.66,2.74,2.74,0,0,1-.13.85,3.41,3.41,0,0,1-.34.78,3.51,3.51,0,0,1-.5.65,2.73,2.73,0,0,1-.62.48,2.12,2.12,0,0,1-.74.3.82.82,0,0,1-.51-.06.69.69,0,0,1-.3-.31,1.07,1.07,0,0,1-.1-.49.28.28,0,0,1,0-.15.24.24,0,0,1,.1-.12l.29-.17c.05,0,.08,0,.11,0A.15.15,0,0,1,131.4,144.64Z" style="fill:#fafafa"></path><path d="M141.36,134.61h0m0,0-2,6.71V138.4l-2.19,1.26,4.16-5m0-.5h0a.48.48,0,0,0-.24.07l-.1.09,0,0-4.15,5.06a.49.49,0,0,0,0,.64.52.52,0,0,0,.38.17.54.54,0,0,0,.25-.06l1.44-.84v2.06a.51.51,0,0,0,.43.5h.07a.49.49,0,0,0,.48-.36l2-6.67a.58.58,0,0,0,0-.18.5.5,0,0,0-.5-.5Zm0,1h0Z" style="fill:#fafafa"></path><polygon points="209.65 100.83 208.59 101.45 208.59 99.35 209.65 98.74 209.65 100.83" style="fill:#fafafa"></polygon><polygon points="211.35 99.85 210.28 100.47 210.28 97.47 211.35 96.86 211.35 99.85" style="fill:#fafafa"></polygon><polygon points="213.05 98.87 211.98 99.49 211.98 95.36 213.05 94.75 213.05 98.87" style="fill:#fafafa"></polygon><polygon points="214.74 97.89 213.67 98.51 213.67 93.29 214.74 92.67 214.74 97.89" style="fill:#C53F3F"></polygon><path d="M222.19,88.23a8.09,8.09,0,0,0-2.83,3.17l.71.56a6,6,0,0,1,2.12-2.38,1.91,1.91,0,0,1,2.13-.08l.71-1.37A2.56,2.56,0,0,0,222.19,88.23Zm-1.85,4,.65.52a3.48,3.48,0,0,1,1.2-1.35,1.07,1.07,0,0,1,1.21,0l.65-1.27a1.65,1.65,0,0,0-1.86.07A5.17,5.17,0,0,0,220.34,92.18Zm1,.76.89.72.91-1.77a.8.8,0,0,0-.91,0A2.4,2.4,0,0,0,221.3,92.94Z" style="fill:#fafafa"></path><path d="M235.1,80.92c.38-.22.69,0,.69.52v3.37a1.68,1.68,0,0,1-.69,1.33l-6,3.47c-.38.22-.69,0-.69-.52V85.72a1.68,1.68,0,0,1,.69-1.33l6-3.47m0-.29-6,3.47a2.19,2.19,0,0,0-.91,1.74v3.37c0,.67.41,1,.91.69l6-3.47a2.19,2.19,0,0,0,.91-1.74V81.32c0-.67-.41-1-.91-.69Z" style="fill:#C53F3F"></path><path d="M232.66,86.71l-3.39,2c-.15.09-.28,0-.28-.21V85.66a.69.69,0,0,1,.28-.54l3.39-2c.16-.09.28,0,.28.22v2.79A.66.66,0,0,1,232.66,86.71Z" style="fill:#fafafa"></path><path d="M236.65,83.54l-.24.14V81.86l.24-.14c.13-.07.24.27.24.77S236.78,83.47,236.65,83.54Z" style="fill:#C53F3F"></path><path d="M163.87,140.93a.1.1,0,0,1,.13,0,.18.18,0,0,1,.06.15v.65a.42.42,0,0,1-.06.21.39.39,0,0,1-.13.15l-1.25.72v5.07a.54.54,0,0,1-.05.21.41.41,0,0,1-.14.15l-.56.32a.1.1,0,0,1-.13,0s-.06-.07-.06-.14v-5.07l-1.24.72a.12.12,0,0,1-.14,0,.17.17,0,0,1-.05-.14v-.66a.53.53,0,0,1,.05-.2.34.34,0,0,1,.14-.15Z" style="fill:#fafafa"></path><path d="M165.9,142.54a1.42,1.42,0,0,0-.6.59,2,2,0,0,0-.18.9v2.41a.39.39,0,0,1-.06.2.31.31,0,0,1-.13.16l-.53.3a.1.1,0,0,1-.13,0s-.05-.07-.05-.14v-4.31a.41.41,0,0,1,.05-.21.39.39,0,0,1,.13-.15l.53-.3a.12.12,0,0,1,.13,0,.18.18,0,0,1,.06.15v.21a3.64,3.64,0,0,1,.38-.56,2.2,2.2,0,0,1,.54-.44l.31-.18a.1.1,0,0,1,.13,0,.18.18,0,0,1,.06.15v.61a.45.45,0,0,1-.06.21.32.32,0,0,1-.13.15Z" style="fill:#fafafa"></path><path d="M167.06,141.94a2.4,2.4,0,0,1,.13-.49,2.79,2.79,0,0,1,.28-.58,3.36,3.36,0,0,1,.45-.58,2.64,2.64,0,0,1,.62-.48,1.87,1.87,0,0,1,.64-.25.71.71,0,0,1,.81.51,2.37,2.37,0,0,1,.11.77v2.72a.42.42,0,0,1-.06.21.39.39,0,0,1-.13.15l-.53.3s-.09,0-.13,0a.18.18,0,0,1-.06-.15v-.3a2.83,2.83,0,0,1-.41.7,2.52,2.52,0,0,1-.7.59,1.39,1.39,0,0,1-.54.2.56.56,0,0,1-.39-.07.63.63,0,0,1-.25-.32,1.54,1.54,0,0,1-.08-.52,2.23,2.23,0,0,1,.34-1.2,3.75,3.75,0,0,1,.91-1l1.12-.92q0-.37-.18-.42a.6.6,0,0,0-.47.11,1,1,0,0,0-.27.22,2.27,2.27,0,0,0-.18.28,1,1,0,0,1-.12.17.31.31,0,0,1-.11.09l-.65.38a.13.13,0,0,1-.12,0S167.05,142,167.06,141.94Zm1.16,1.94a2.18,2.18,0,0,0,.42-.33,2.94,2.94,0,0,0,.31-.41,2.27,2.27,0,0,0,.18-.44,1.64,1.64,0,0,0,.06-.42v-.09l-.94.76a2.26,2.26,0,0,0-.41.43.78.78,0,0,0-.12.41c0,.13.05.2.15.2A.7.7,0,0,0,168.22,143.88Z" style="fill:#fafafa"></path><path d="M174.4,141.08a.44.44,0,0,1-.18.35l-.53.31a.1.1,0,0,1-.13,0,.17.17,0,0,1-.06-.14v-2.35a1.2,1.2,0,0,0-.19-.78c-.13-.15-.33-.14-.6,0a1.54,1.54,0,0,0-.58.67,2.37,2.37,0,0,0-.21,1v2.35a.54.54,0,0,1,0,.21.41.41,0,0,1-.14.15l-.52.3a.1.1,0,0,1-.13,0s-.06-.07-.06-.14v-4.31a.42.42,0,0,1,.06-.21.32.32,0,0,1,.13-.15l.52-.3a.12.12,0,0,1,.14,0,.17.17,0,0,1,0,.14v.21a3.92,3.92,0,0,1,.42-.64,2.26,2.26,0,0,1,.58-.49,1.39,1.39,0,0,1,.71-.23.64.64,0,0,1,.46.21,1.23,1.23,0,0,1,.24.54,3.87,3.87,0,0,1,.07.79Z" style="fill:#fafafa"></path><path d="M177.29,138.28c0-.07,0-.11,0-.14a.27.27,0,0,0-.17,0l-.32.08-.51.14a1.25,1.25,0,0,1-.51.06.55.55,0,0,1-.32-.13.66.66,0,0,1-.17-.32,1.85,1.85,0,0,1-.05-.49,1.89,1.89,0,0,1,.1-.6,2.4,2.4,0,0,1,.28-.64,3.55,3.55,0,0,1,.44-.6,2.83,2.83,0,0,1,.61-.47,1.87,1.87,0,0,1,.61-.25.86.86,0,0,1,.45,0,.53.53,0,0,1,.29.22.74.74,0,0,1,.12.37.46.46,0,0,1-.05.21.41.41,0,0,1-.14.15l-.53.31a.22.22,0,0,1-.16,0l-.11,0a.31.31,0,0,0-.17,0,.78.78,0,0,0-.31.13,1.48,1.48,0,0,0-.37.29.56.56,0,0,0-.16.39.21.21,0,0,0,0,.15s.07,0,.14,0a1.43,1.43,0,0,0,.3-.06l.5-.14c.41-.12.7-.11.87,0a1,1,0,0,1,.25.78,1.89,1.89,0,0,1-.1.6,3.14,3.14,0,0,1-.3.65,4,4,0,0,1-.49.61,3.21,3.21,0,0,1-.65.5,2,2,0,0,1-.65.26.9.9,0,0,1-.47,0,.6.6,0,0,1-.3-.24.74.74,0,0,1-.11-.39.34.34,0,0,1,0-.21.41.41,0,0,1,.14-.15l.53-.31a.16.16,0,0,1,.16,0l.11.08a.36.36,0,0,0,.19,0,.85.85,0,0,0,.35-.14l.22-.14.2-.18a1,1,0,0,0,.16-.2A.42.42,0,0,0,177.29,138.28Z" style="fill:#fafafa"></path><path d="M179.84,137.94a.42.42,0,0,1-.06.21.39.39,0,0,1-.13.15l-.53.3a.1.1,0,0,1-.13,0s-.06-.07-.06-.14v-6.07a.41.41,0,0,1,.06-.2.33.33,0,0,1,.13-.15l.53-.31a.1.1,0,0,1,.13,0,.16.16,0,0,1,.06.14Z" style="fill:#fafafa"></path><path d="M180.79,134a2.4,2.4,0,0,1,.13-.49,2.85,2.85,0,0,1,.29-.58,3.36,3.36,0,0,1,.45-.58,2.5,2.5,0,0,1,.62-.48,1.79,1.79,0,0,1,.64-.25.71.71,0,0,1,.8.51,2.37,2.37,0,0,1,.11.77v2.72a.54.54,0,0,1-.05.21.41.41,0,0,1-.14.15l-.52.31c-.05,0-.1,0-.13,0a.18.18,0,0,1-.06-.15v-.3a3.25,3.25,0,0,1-.42.7,2.39,2.39,0,0,1-.7.59,1.35,1.35,0,0,1-.53.2.58.58,0,0,1-.4-.07.64.64,0,0,1-.24-.31,1.4,1.4,0,0,1-.09-.53,2.23,2.23,0,0,1,.34-1.2,3.92,3.92,0,0,1,.91-1l1.13-.92c0-.25-.06-.39-.19-.42a.58.58,0,0,0-.46.11.76.76,0,0,0-.27.22,1.52,1.52,0,0,0-.19.28.62.62,0,0,1-.12.17.31.31,0,0,1-.11.09l-.65.38a.11.11,0,0,1-.11,0A.12.12,0,0,1,180.79,134ZM182,136a1.7,1.7,0,0,0,.42-.33,2.33,2.33,0,0,0,.31-.41,3.25,3.25,0,0,0,.19-.44,1.64,1.64,0,0,0,.06-.42v-.09L182,135a2,2,0,0,0-.41.43.71.71,0,0,0-.13.41c0,.13.05.2.15.2A.67.67,0,0,0,182,136Z" style="fill:#fafafa"></path><path d="M185.94,132.93a.55.55,0,0,0,.11.39c.08.07.22,0,.43-.08l.42-.24a.1.1,0,0,1,.13,0,.16.16,0,0,1,.06.14v.61a.42.42,0,0,1-.06.21.32.32,0,0,1-.13.15l-.51.3c-.43.25-.77.3-1,.15s-.35-.51-.35-1.09v-2l-.46.26a.1.1,0,0,1-.13,0s-.06-.07-.06-.14V131a.42.42,0,0,1,.06-.21.39.39,0,0,1,.13-.15l.46-.26v-1.51a.54.54,0,0,1,.05-.21.39.39,0,0,1,.13-.15l.53-.3a.1.1,0,0,1,.13,0s.06.07.06.14v1.51l.89-.52a.12.12,0,0,1,.14,0,.18.18,0,0,1,.05.14v.61a.54.54,0,0,1-.05.21.41.41,0,0,1-.14.15l-.89.52Z" style="fill:#fafafa"></path><path d="M189.36,127.79a1.51,1.51,0,0,1,.69-.24.85.85,0,0,1,.53.12,1.06,1.06,0,0,1,.36.44,1.86,1.86,0,0,1,.16.71,1.22,1.22,0,0,1,0,.21v.51a1.28,1.28,0,0,1,0,.21,4,4,0,0,1-.16.89,4.26,4.26,0,0,1-.36.85,4.33,4.33,0,0,1-.53.74,3,3,0,0,1-.69.55,1.71,1.71,0,0,1-.69.25.87.87,0,0,1-.54-.13,1,1,0,0,1-.35-.43,2.06,2.06,0,0,1-.16-.71,1.15,1.15,0,0,1,0-.2c0-.08,0-.16,0-.25s0-.17,0-.26a1.41,1.41,0,0,1,0-.22,3.53,3.53,0,0,1,.15-.89,4.93,4.93,0,0,1,.36-.85,3.6,3.6,0,0,1,.54-.74A2.83,2.83,0,0,1,189.36,127.79Zm.84,1.6a1,1,0,0,0-.1-.42.37.37,0,0,0-.2-.19.39.39,0,0,0-.26,0,.94.94,0,0,0-.28.12,1.76,1.76,0,0,0-.29.21,1.53,1.53,0,0,0-.25.3,1.56,1.56,0,0,0-.2.41,2.16,2.16,0,0,0-.1.54s0,.11,0,.19V131c0,.08,0,.14,0,.18a1.08,1.08,0,0,0,.1.42.38.38,0,0,0,.2.18.42.42,0,0,0,.25,0,1.23,1.23,0,0,0,.29-.13,1.31,1.31,0,0,0,.28-.2,1.28,1.28,0,0,0,.26-.3,1.63,1.63,0,0,0,.2-.42,2,2,0,0,0,.1-.53c0-.05,0-.11,0-.19v-.46C190.21,129.49,190.2,129.43,190.2,129.39Z" style="fill:#fafafa"></path><path d="M193.58,126.55a1.62,1.62,0,0,0-.6.59,2,2,0,0,0-.18.91v2.41a.41.41,0,0,1-.06.2.32.32,0,0,1-.13.15l-.53.31a.1.1,0,0,1-.13,0,.21.21,0,0,1,0-.15v-4.3a.54.54,0,0,1,0-.21.39.39,0,0,1,.13-.15l.53-.31a.1.1,0,0,1,.13,0,.17.17,0,0,1,.06.14v.22a3.76,3.76,0,0,1,.38-.57,2.18,2.18,0,0,1,.54-.43l.31-.18a.12.12,0,0,1,.14,0,.2.2,0,0,1,.05.14v.61a.54.54,0,0,1-.05.21.34.34,0,0,1-.14.15Z" style="fill:#fafafa"></path><path d="M236.41,102.94a12,12,0,0,1-1.73,5.89,9,9,0,0,1-3,3.21,3.13,3.13,0,0,1-3,.3c-1.05-.56-1.74-1.93-1.74-3.9,0-3.51,2.14-7.59,4.77-9.1S236.41,99.43,236.41,102.94Z" style="fill:#C53F3F"></path><path d="M236.41,102.94a12,12,0,0,1-1.73,5.89,9,9,0,0,1-3,3.21,3.13,3.13,0,0,1-3,.3c-1.05-.56-1.74-1.93-1.74-3.9,0-3.51,2.14-7.59,4.77-9.1S236.41,99.43,236.41,102.94Z" style="fill:#fff;opacity:0.75"></path><path d="M233.16,103.53a3.65,3.65,0,0,1-1.51,2.89c-.84.48-1.51,0-1.51-1.15a3.61,3.61,0,0,1,1.51-2.89C232.48,101.9,233.16,102.41,233.16,103.53Z" style="fill:#C53F3F"></path><path d="M234.68,107.52v1.31a9,9,0,0,1-3,3.21,3.13,3.13,0,0,1-3,.3V111a3.5,3.5,0,0,1,1.47-2.79l3.12-1.81C234,106,234.68,106.44,234.68,107.52Z" style="fill:#C53F3F"></path><path d="M237.37,73h0c2.41,0,3.85,2,3.85,5.22V367.1a14.33,14.33,0,0,1-6.38,11.07L118.52,445.33a5.34,5.34,0,0,1-2.59.81c-1.76,0-2.81-1.46-2.81-3.93v-291a14.37,14.37,0,0,1,4.5-9.63l.22-.21.38-.34a11.74,11.74,0,0,1,1.28-.88l32.72-18.89s.95-.56,2.13-1.23a1,1,0,0,1,.47-.16c.19,0,.19.49.19.55a2.23,2.23,0,0,0,2.19,2.45,3.14,3.14,0,0,0,1.56-.46l38.13-22a5.9,5.9,0,0,0,2.77-4.62,3.86,3.86,0,0,1,1.5-2.78l.14-.08,32-18.48.68-.39a6.94,6.94,0,0,1,3.38-1m0-1a7.86,7.86,0,0,0-3.87,1.18l-.68.4-32,18.47-.22.13a4.86,4.86,0,0,0-1.91,3.58,4.91,4.91,0,0,1-2.28,3.77l-38.13,22a2.12,2.12,0,0,1-1.07.33c-.72,0-1.21-.54-1.21-1.47s-.48-1.53-1.17-1.53a1.94,1.94,0,0,0-1,.3c-1.18.67-2.13,1.23-2.13,1.23L119,139.31a11.15,11.15,0,0,0-1.4.95l-.65.59a15.39,15.39,0,0,0-4.82,10.36v291c0,3.11,1.54,4.91,3.79,4.91a6.16,6.16,0,0,0,3.08-.95L235.33,379a15.25,15.25,0,0,0,6.87-11.92V78.22c0-3.93-2-6.2-4.83-6.2Z" style="fill:#C53F3F"></path></g><g id="freepik--Chart--inject-337"><path d="M126.35,294.53l101-58.32c2.39-1.38,4.33-.26,4.33,2.5v70.62a9.58,9.58,0,0,1-4.33,7.5l-101,58.32c-2.39,1.38-4.33.26-4.33-2.5V302A9.58,9.58,0,0,1,126.35,294.53Z" style="fill:#e0e0e0"></path><path d="M127.23,377.2l1.67,1a3.28,3.28,0,0,0,3,0l101-58.33a3.26,3.26,0,0,0,1.48-2.56v-74.1a3.26,3.26,0,0,0-1.48-2.56l-1.67-1a3.26,3.26,0,0,0-2.95,0L127.23,298a3.28,3.28,0,0,0-1.47,2.56v74.1A3.28,3.28,0,0,0,127.23,377.2Z" style="fill:#C53F3F"></path><path d="M127.23,377.2l1.67,1a3.28,3.28,0,0,0,3,0l101-58.33a3.26,3.26,0,0,0,1.48-2.56v-74.1a3.26,3.26,0,0,0-1.48-2.56l-1.67-1a3.26,3.26,0,0,0-2.95,0L127.23,298a3.28,3.28,0,0,0-1.47,2.56v74.1A3.28,3.28,0,0,0,127.23,377.2Z" style="fill:#fff;opacity:0.55"></path><path d="M131.86,378.16l101-58.33a3.26,3.26,0,0,0,1.48-2.56v-74.1c0-.94-.66-1.32-1.48-.85l-101,58.33a3.28,3.28,0,0,0-1.47,2.56v74.1C130.38,378.25,131,378.63,131.86,378.16Z" style="fill:#fff"></path><path d="M233.55,242.68c.22,0,.25.31.25.49v74.1a2.74,2.74,0,0,1-1.2,2.07l-101,58.33a.79.79,0,0,1-.38.12c-.21,0-.24-.3-.24-.48v-74.1a2.71,2.71,0,0,1,1.19-2.07l101-58.33a.86.86,0,0,1,.38-.13m0-.57a1.33,1.33,0,0,0-.66.21l-101,58.33a3.28,3.28,0,0,0-1.47,2.56v74.1c0,.67.33,1.05.81,1.05a1.34,1.34,0,0,0,.67-.2l101-58.33a3.26,3.26,0,0,0,1.48-2.56v-74.1c0-.67-.34-1.06-.82-1.06Z" style="fill:#C53F3F"></path><path d="M131.63,378.27a3.29,3.29,0,0,1-2.73-.11l-1.67-1a3.28,3.28,0,0,1-1.47-2.56v-74.1a3,3,0,0,1,.43-1.46l4.62,2.67a3,3,0,0,0-.44,1.46v74.1C130.37,378.16,130.92,378.56,131.63,378.27Z" style="fill:#C53F3F"></path><path d="M131.63,378.27a3.29,3.29,0,0,1-2.73-.11l-1.67-1a3.28,3.28,0,0,1-1.47-2.56v-74.1a3,3,0,0,1,.43-1.46l4.62,2.67a3,3,0,0,0-.44,1.46v74.1C130.37,378.16,130.92,378.56,131.63,378.27Z" style="fill:#fff;opacity:0.1"></path><path d="M138.17,304.46a2.52,2.52,0,0,1,1-.36,1.22,1.22,0,0,1,.68.09,1,1,0,0,1,.42.4,1.42,1.42,0,0,1,.15.57.36.36,0,0,1-.06.24.43.43,0,0,1-.15.17l-.57.33a.24.24,0,0,1-.2,0,.33.33,0,0,1-.13-.11.57.57,0,0,0-.36-.26,1.18,1.18,0,0,0-.73.23,2.63,2.63,0,0,0-.4.28,3.8,3.8,0,0,0-.33.37,1.94,1.94,0,0,0-.22.4,1.15,1.15,0,0,0-.08.41.62.62,0,0,0,.08.35.29.29,0,0,0,.26.12,1.47,1.47,0,0,0,.47-.06l.74-.21a3.86,3.86,0,0,1,.83-.15,1,1,0,0,1,.58.12.82.82,0,0,1,.32.42,1.79,1.79,0,0,1,.11.71,3.11,3.11,0,0,1-.16,1,3.74,3.74,0,0,1-.46,1,4.6,4.6,0,0,1-.73.89,4.41,4.41,0,0,1-1,.73,2.79,2.79,0,0,1-.86.35,1.36,1.36,0,0,1-.72,0,.88.88,0,0,1-.51-.37,1.37,1.37,0,0,1-.22-.73.36.36,0,0,1,.06-.24.38.38,0,0,1,.16-.17l.56-.33a.27.27,0,0,1,.21-.05.2.2,0,0,1,.12.12,1.37,1.37,0,0,0,.13.2.43.43,0,0,0,.22.12.81.81,0,0,0,.34,0,1.8,1.8,0,0,0,.51-.23,3.46,3.46,0,0,0,.47-.31,2.4,2.4,0,0,0,.39-.39,2.27,2.27,0,0,0,.27-.44,1.08,1.08,0,0,0,.11-.47.4.4,0,0,0-.11-.32.45.45,0,0,0-.34-.06,4.2,4.2,0,0,0-.57.12l-.78.21a2.8,2.8,0,0,1-.7.1.77.77,0,0,1-.79-.58,2.42,2.42,0,0,1-.1-.78,3.09,3.09,0,0,1,.16-1,4.44,4.44,0,0,1,1.11-1.79A4,4,0,0,1,138.17,304.46Z" style="fill:#C53F3F"></path><path d="M143.63,309a1.84,1.84,0,0,1-.44.2,1.1,1.1,0,0,1-.35,0,.49.49,0,0,1-.25-.06.56.56,0,0,1-.17-.11v2.28a.53.53,0,0,1-.06.24.57.57,0,0,1-.16.18l-.61.35a.14.14,0,0,1-.15,0,.21.21,0,0,1-.06-.17v-7a.53.53,0,0,1,.06-.24.36.36,0,0,1,.15-.17l.61-.36a.15.15,0,0,1,.16,0,.21.21,0,0,1,.06.17v.24a2.43,2.43,0,0,1,.17-.3,2.6,2.6,0,0,1,.25-.36,3.91,3.91,0,0,1,.35-.36,2.92,2.92,0,0,1,.44-.32,1.39,1.39,0,0,1,.73-.21.8.8,0,0,1,.55.24,1.29,1.29,0,0,1,.36.59,2.81,2.81,0,0,1,.15.86c0,.11,0,.23,0,.37s0,.27,0,.38a4.83,4.83,0,0,1-.15,1,4.5,4.5,0,0,1-.36,1,3.89,3.89,0,0,1-.55.87A2.53,2.53,0,0,1,143.63,309Zm.75-3a3,3,0,0,0,0-.6c0-.44-.14-.72-.32-.81a.65.65,0,0,0-.67.08,1.83,1.83,0,0,0-.66.69,2.44,2.44,0,0,0-.31,1.07c0,.11,0,.25,0,.41a3.9,3.9,0,0,0,0,.4.84.84,0,0,0,.31.7.62.62,0,0,0,.66-.06,1.85,1.85,0,0,0,.67-.69A2.7,2.7,0,0,0,144.38,306Z" style="fill:#C53F3F"></path><path d="M146.35,303.14a2.69,2.69,0,0,1,.15-.57,3.37,3.37,0,0,1,.32-.67,4.57,4.57,0,0,1,.53-.67,3.31,3.31,0,0,1,.71-.56,2.08,2.08,0,0,1,.74-.28.8.8,0,0,1,.93.59,2.5,2.5,0,0,1,.13.89V305a.53.53,0,0,1-.06.24.36.36,0,0,1-.15.17l-.61.36a.15.15,0,0,1-.16,0,.21.21,0,0,1-.06-.17v-.35a3.19,3.19,0,0,1-.49.81,2.83,2.83,0,0,1-.8.69,1.91,1.91,0,0,1-.62.23.69.69,0,0,1-.46-.09.66.66,0,0,1-.28-.36,1.59,1.59,0,0,1-.1-.61,2.66,2.66,0,0,1,.39-1.39,4.59,4.59,0,0,1,1-1.17l1.31-1.06c0-.29-.07-.45-.22-.49a.71.71,0,0,0-.54.13,1.35,1.35,0,0,0-.31.25c-.07.1-.15.21-.22.33a.86.86,0,0,1-.13.2.41.41,0,0,1-.13.1l-.75.44a.12.12,0,0,1-.13,0S146.34,303.22,146.35,303.14Zm1.34,2.25a2.59,2.59,0,0,0,.48-.38,2.74,2.74,0,0,0,.36-.48,2.25,2.25,0,0,0,.22-.51,1.81,1.81,0,0,0,.07-.49v-.1l-1.09.88a2.42,2.42,0,0,0-.48.5.92.92,0,0,0-.14.47c0,.15.06.23.17.23A.72.72,0,0,0,147.69,305.39Z" style="fill:#C53F3F"></path><path d="M154.85,302.14a.53.53,0,0,1-.06.24.44.44,0,0,1-.16.17l-.61.36a.14.14,0,0,1-.15,0,.21.21,0,0,1-.06-.17V300a1.36,1.36,0,0,0-.23-.89c-.15-.17-.38-.17-.69,0a1.65,1.65,0,0,0-.67.77,2.78,2.78,0,0,0-.24,1.17v2.72a.55.55,0,0,1-.07.24.45.45,0,0,1-.15.18l-.61.35a.14.14,0,0,1-.15,0,.18.18,0,0,1-.07-.17v-5a.47.47,0,0,1,.07-.24.36.36,0,0,1,.15-.17l.61-.35a.12.12,0,0,1,.15,0,.22.22,0,0,1,.07.17v.25a3.72,3.72,0,0,1,.49-.75,2.21,2.21,0,0,1,.66-.56,1.59,1.59,0,0,1,.82-.27.72.72,0,0,1,.53.24,1.42,1.42,0,0,1,.29.63,5,5,0,0,1,.08.91Z" style="fill:#C53F3F"></path><path d="M156.79,293.71a.14.14,0,0,1,.15,0,.21.21,0,0,1,.06.17v.83a.53.53,0,0,1-.06.24.43.43,0,0,1-.15.17l-.69.4a.12.12,0,0,1-.16,0,.18.18,0,0,1-.06-.16v-.84a.57.57,0,0,1,.06-.24.38.38,0,0,1,.16-.17Zm.17,7.21a.53.53,0,0,1-.06.24.55.55,0,0,1-.15.18l-.61.35a.15.15,0,0,1-.16,0,.21.21,0,0,1-.06-.17v-5a.61.61,0,0,1,.06-.25.44.44,0,0,1,.16-.17l.61-.35a.12.12,0,0,1,.15,0,.22.22,0,0,1,.06.17Z" style="fill:#C53F3F"></path><path d="M160.34,297.66a.22.22,0,0,0-.05-.16.3.3,0,0,0-.2,0l-.37.08-.6.18a1.89,1.89,0,0,1-.58.07.66.66,0,0,1-.38-.16.72.72,0,0,1-.19-.38,2.29,2.29,0,0,1-.06-.56A2.59,2.59,0,0,1,158,296a3.73,3.73,0,0,1,.33-.74,3.13,3.13,0,0,1,.52-.69,2.87,2.87,0,0,1,.69-.56,2.41,2.41,0,0,1,.71-.28,1.13,1.13,0,0,1,.52,0,.62.62,0,0,1,.34.25.88.88,0,0,1,.14.43.53.53,0,0,1-.06.24.57.57,0,0,1-.16.18l-.62.35a.24.24,0,0,1-.18.05l-.13-.06a.37.37,0,0,0-.19,0,1.27,1.27,0,0,0-.37.15,1.74,1.74,0,0,0-.42.34.69.69,0,0,0-.19.45.25.25,0,0,0,.05.17s.08.05.17.05l.34-.07.58-.16c.47-.14.81-.12,1,0a1.17,1.17,0,0,1,.3.91,2.34,2.34,0,0,1-.12.7,3.54,3.54,0,0,1-.35.74,3.72,3.72,0,0,1-.56.71,3.56,3.56,0,0,1-.76.58,2,2,0,0,1-.75.3,1,1,0,0,1-.55,0,.63.63,0,0,1-.34-.28,1,1,0,0,1-.13-.45.43.43,0,0,1,.06-.24.47.47,0,0,1,.16-.18l.62-.35q.12-.07.18,0l.13.09a.33.33,0,0,0,.21.05,1,1,0,0,0,.41-.16,1.84,1.84,0,0,0,.25-.17,1.59,1.59,0,0,0,.24-.2,1.88,1.88,0,0,0,.18-.24A.44.44,0,0,0,160.34,297.66Z" style="fill:#C53F3F"></path><path d="M166.17,295.61a.55.55,0,0,1-.07.24.36.36,0,0,1-.15.17l-.61.36a.15.15,0,0,1-.16,0,.22.22,0,0,1-.06-.17v-2.72a1.38,1.38,0,0,0-.22-.9c-.15-.17-.38-.16-.69,0a1.67,1.67,0,0,0-.68.77,2.78,2.78,0,0,0-.24,1.17v2.72a.53.53,0,0,1-.06.24.44.44,0,0,1-.16.17l-.61.35a.12.12,0,0,1-.15,0,.21.21,0,0,1-.06-.17v-7a.53.53,0,0,1,.06-.24.39.39,0,0,1,.15-.18l.61-.35a.15.15,0,0,1,.16,0,.2.2,0,0,1,.06.16v2.28a4.52,4.52,0,0,1,.49-.74,2.25,2.25,0,0,1,.67-.56,1.57,1.57,0,0,1,.82-.27.68.68,0,0,1,.53.24,1.42,1.42,0,0,1,.28.63,4.19,4.19,0,0,1,.09.91Z" style="fill:#C53F3F"></path><path d="M141,320.9c.07,0,.12,0,.17,0a.23.23,0,0,1,.08.19v7.69a.56.56,0,0,1-.08.26.49.49,0,0,1-.17.2l-.36.21c-.07,0-.12,0-.17,0a.22.22,0,0,1-.07-.19v-3.35l-3.15,1.81v3.36a.54.54,0,0,1-.07.27.46.46,0,0,1-.17.19l-.36.21a.15.15,0,0,1-.17,0,.21.21,0,0,1-.07-.19v-7.69a.54.54,0,0,1,.07-.27.46.46,0,0,1,.17-.19l.36-.21a.15.15,0,0,1,.17,0,.22.22,0,0,1,.07.19v3.26l3.15-1.81v-3.26a.54.54,0,0,1,.07-.27.4.4,0,0,1,.17-.19Z" style="fill:#455a64"></path><path d="M144.56,320.86a1.93,1.93,0,0,1,.86-.3,1,1,0,0,1,.64.17,1.33,1.33,0,0,1,.43.6,3.27,3.27,0,0,1,.19,1c0,.07,0,.16,0,.25v.62c0,.1,0,.18,0,.25a6.68,6.68,0,0,1-.2,1.2,4.77,4.77,0,0,1-.42,1.07,4.58,4.58,0,0,1-.64.92,3.62,3.62,0,0,1-.86.69,2.13,2.13,0,0,1-.85.3,1.07,1.07,0,0,1-.65-.17,1.34,1.34,0,0,1-.42-.59,3.27,3.27,0,0,1-.19-1c0-.06,0-.14,0-.24V325c0-.1,0-.19,0-.26a5.91,5.91,0,0,1,.19-1.19,5.48,5.48,0,0,1,.42-1.09,4.86,4.86,0,0,1,.65-.91A3.78,3.78,0,0,1,144.56,320.86Zm1.31,3c0-.14,0-.31,0-.5s0-.36,0-.5a2.45,2.45,0,0,0-.12-.6.85.85,0,0,0-.25-.39.59.59,0,0,0-.39-.13,1.14,1.14,0,0,0-.55.18,2.12,2.12,0,0,0-.54.45,2.46,2.46,0,0,0-.39.58,2.78,2.78,0,0,0-.25.68,4.57,4.57,0,0,0-.12.74c0,.15,0,.32,0,.51s0,.36,0,.49a2.66,2.66,0,0,0,.12.6.78.78,0,0,0,.25.39.56.56,0,0,0,.39.13,1.13,1.13,0,0,0,.54-.19,2.13,2.13,0,0,0,.55-.44,3,3,0,0,0,.39-.59,2.89,2.89,0,0,0,.25-.68A4.45,4.45,0,0,0,145.87,323.82Z" style="fill:#455a64"></path><path d="M148.63,324.5a.56.56,0,0,1-.08.27.4.4,0,0,1-.17.19l-.32.19a.15.15,0,0,1-.17,0,.23.23,0,0,1-.08-.19v-7.81a.63.63,0,0,1,.08-.27.4.4,0,0,1,.17-.19l.32-.19c.07,0,.13,0,.17,0a.21.21,0,0,1,.08.18Z" style="fill:#455a64"></path><path d="M149.63,322.68a2.76,2.76,0,0,1,.15-.91,3.37,3.37,0,0,1,.39-.84,4.56,4.56,0,0,1,.59-.74,8.55,8.55,0,0,1,.7-.65l1.26-1v-.15c0-.41-.1-.65-.3-.74a.79.79,0,0,0-.74.13,1.61,1.61,0,0,0-.59.53,3.68,3.68,0,0,0-.35.65.75.75,0,0,1-.11.2.76.76,0,0,1-.17.13l-.27.16a.17.17,0,0,1-.18,0,.19.19,0,0,1-.06-.19,2.05,2.05,0,0,1,.15-.62,4.09,4.09,0,0,1,.38-.71,5.56,5.56,0,0,1,.54-.66,3.5,3.5,0,0,1,.66-.52,2.17,2.17,0,0,1,.74-.27.82.82,0,0,1,.59.11,1,1,0,0,1,.39.51,2.74,2.74,0,0,1,.14.94v3.63a.68.68,0,0,1-.07.26.5.5,0,0,1-.17.2l-.33.19c-.07,0-.13,0-.17,0a.21.21,0,0,1-.08-.18v-.49a1.87,1.87,0,0,1-.25.54,4.6,4.6,0,0,1-.38.52,4.73,4.73,0,0,1-.46.44,3.28,3.28,0,0,1-.44.31,1.59,1.59,0,0,1-.64.24.85.85,0,0,1-.49-.07.63.63,0,0,1-.31-.35A1.34,1.34,0,0,1,149.63,322.68Zm1.65-.29a2.9,2.9,0,0,0,.59-.47,3.18,3.18,0,0,0,.46-.63,3.58,3.58,0,0,0,.29-.73,2.86,2.86,0,0,0,.1-.77v-.3l-1.05.84a4.67,4.67,0,0,0-.89.89,1.53,1.53,0,0,0-.33.87.61.61,0,0,0,0,.24.39.39,0,0,0,.14.17.42.42,0,0,0,.26,0A1.08,1.08,0,0,0,151.28,322.39Z" style="fill:#455a64"></path><path d="M154.77,320.31a1.23,1.23,0,0,1,.11-.38.66.66,0,0,1,.27-.3l.52-.3a.14.14,0,0,1,.14,0,.18.18,0,0,1,.06.15s0,.07,0,.09l-.47,1.87a1.44,1.44,0,0,1-.12.32.59.59,0,0,1-.26.28l-.22.13a.12.12,0,0,1-.14,0,.18.18,0,0,1-.06-.15v0Z" style="fill:#455a64"></path><path d="M160.06,312.72l.19-.4a2.42,2.42,0,0,1,.25-.4,2.24,2.24,0,0,1,.32-.37,2.53,2.53,0,0,1,.44-.33,1.4,1.4,0,0,1,.9-.25.77.77,0,0,1,.56.44c.08-.19.16-.37.25-.54a3.25,3.25,0,0,1,.3-.51,2.86,2.86,0,0,1,.4-.45,2.23,2.23,0,0,1,.51-.37c.6-.35,1-.36,1.31,0a2.75,2.75,0,0,1,.41,1.73v3.3a.54.54,0,0,1-.07.27.46.46,0,0,1-.17.19l-.33.19a.13.13,0,0,1-.17,0,.2.2,0,0,1-.07-.18v-3.18a1.84,1.84,0,0,0-.27-1.2c-.18-.18-.44-.18-.78,0a2,2,0,0,0-.77.86A3.28,3.28,0,0,0,163,313v3.26a.54.54,0,0,1-.07.27.4.4,0,0,1-.17.19l-.33.19a.15.15,0,0,1-.17,0,.22.22,0,0,1-.07-.19V313.5a1.79,1.79,0,0,0-.27-1.19c-.18-.19-.44-.18-.78,0a2,2,0,0,0-.77.85,3.33,3.33,0,0,0-.29,1.46v3.26a.54.54,0,0,1-.07.27.46.46,0,0,1-.17.19l-.33.19a.14.14,0,0,1-.17,0s-.07-.09-.07-.18v-5.55a.54.54,0,0,1,.07-.27.53.53,0,0,1,.17-.19l.33-.19a.13.13,0,0,1,.17,0s.07.09.07.18Z" style="fill:#455a64"></path><path d="M168.1,306.13a.68.68,0,0,1-.07.27.53.53,0,0,1-.17.19l-.51.29a.15.15,0,0,1-.17,0,.22.22,0,0,1-.07-.19V306a.54.54,0,0,1,.07-.26.43.43,0,0,1,.17-.2l.51-.29a.14.14,0,0,1,.17,0,.22.22,0,0,1,.07.18Zm-.09,7.18a.68.68,0,0,1-.07.27.53.53,0,0,1-.17.19l-.33.19a.15.15,0,0,1-.17,0,.22.22,0,0,1-.07-.19v-5.55a.54.54,0,0,1,.07-.26.42.42,0,0,1,.17-.2l.33-.19a.15.15,0,0,1,.17,0,.25.25,0,0,1,.07.18Z" style="fill:#455a64"></path><path d="M175.65,308.9a.54.54,0,0,1-.07.27.46.46,0,0,1-.17.19l-.33.19a.13.13,0,0,1-.17,0s-.07-.09-.07-.18v-3.14c0-.62-.11-1-.33-1.18s-.53-.15-.92.08a2.32,2.32,0,0,0-.91,1,3.34,3.34,0,0,0-.34,1.57v3.14a.68.68,0,0,1-.07.27.53.53,0,0,1-.17.19l-.33.19a.15.15,0,0,1-.17,0,.22.22,0,0,1-.07-.19v-5.55a.54.54,0,0,1,.07-.26.49.49,0,0,1,.17-.2l.33-.19a.15.15,0,0,1,.17,0,.25.25,0,0,1,.07.18v.37a4.29,4.29,0,0,1,.5-.84,2.83,2.83,0,0,1,.88-.76,1.78,1.78,0,0,1,.78-.27.9.9,0,0,1,.61.17,1.28,1.28,0,0,1,.4.61,3.44,3.44,0,0,1,.14,1Z" style="fill:#455a64"></path><path d="M178.85,301.07a1.86,1.86,0,0,1,.85-.3,1,1,0,0,1,.65.17,1.28,1.28,0,0,1,.42.59,3.34,3.34,0,0,1,.19,1,1.85,1.85,0,0,1,0,.25v.62a1.85,1.85,0,0,1,0,.25,6.57,6.57,0,0,1-.19,1.19,5.77,5.77,0,0,1-.42,1.08,4.56,4.56,0,0,1-.65.91,3.3,3.3,0,0,1-.85.69,1.93,1.93,0,0,1-.86.3.91.91,0,0,1-.64-.17,1.25,1.25,0,0,1-.43-.59,3.14,3.14,0,0,1-.19-1,1.55,1.55,0,0,1,0-.23c0-.1,0-.2,0-.31s0-.21,0-.31a2.26,2.26,0,0,1,0-.27,5.81,5.81,0,0,1,.19-1.18,5.27,5.27,0,0,1,.43-1.09,4.15,4.15,0,0,1,.64-.91A3.19,3.19,0,0,1,178.85,301.07Zm1.3,3c0-.14,0-.31,0-.51s0-.36,0-.49a2.45,2.45,0,0,0-.12-.6.85.85,0,0,0-.25-.39.56.56,0,0,0-.39-.13,1.11,1.11,0,0,0-.54.18,2.17,2.17,0,0,0-.55.45,2.94,2.94,0,0,0-.39.58,3.06,3.06,0,0,0-.25.68,4.63,4.63,0,0,0-.12.73c0,.15,0,.33,0,.52s0,.36,0,.48a2.45,2.45,0,0,0,.12.6.8.8,0,0,0,.25.39.54.54,0,0,0,.39.13,1.14,1.14,0,0,0,.55-.18,2.31,2.31,0,0,0,.54-.44,2.52,2.52,0,0,0,.39-.59,3.06,3.06,0,0,0,.25-.68A4.45,4.45,0,0,0,180.15,304Z" style="fill:#455a64"></path><path d="M182.91,299.53a2.87,2.87,0,0,1,.19-.4,3.26,3.26,0,0,1,.24-.4,2.3,2.3,0,0,1,.33-.38,2.4,2.4,0,0,1,.43-.32,1.44,1.44,0,0,1,.91-.25.8.8,0,0,1,.56.44q.12-.29.24-.54a3.3,3.3,0,0,1,.31-.51,2.38,2.38,0,0,1,.39-.45,2.78,2.78,0,0,1,.51-.37c.6-.35,1-.36,1.32,0a2.75,2.75,0,0,1,.41,1.73v3.3a.63.63,0,0,1-.07.26.5.5,0,0,1-.17.2l-.33.19c-.07,0-.13,0-.17,0a.21.21,0,0,1-.08-.18v-3.18a1.85,1.85,0,0,0-.26-1.2c-.18-.18-.44-.18-.79,0a2,2,0,0,0-.76.86,3.15,3.15,0,0,0-.29,1.45V303a.68.68,0,0,1-.07.27.46.46,0,0,1-.17.19l-.33.19a.15.15,0,0,1-.17,0,.22.22,0,0,1-.07-.19v-3.18a1.79,1.79,0,0,0-.27-1.19c-.18-.19-.44-.18-.79,0a1.93,1.93,0,0,0-.76.85,3.33,3.33,0,0,0-.29,1.46v3.26a.68.68,0,0,1-.07.27.53.53,0,0,1-.17.19l-.33.19c-.07,0-.13,0-.17,0a.2.2,0,0,1-.07-.18v-5.55a.54.54,0,0,1,.07-.27.4.4,0,0,1,.17-.19l.33-.19a.14.14,0,0,1,.17,0,.22.22,0,0,1,.07.18Z" style="fill:#455a64"></path><path d="M192.24,293.34a1.64,1.64,0,0,1,.78-.26.93.93,0,0,1,.63.2,1.42,1.42,0,0,1,.43.64,3.74,3.74,0,0,1,.19,1.07v.77a6.8,6.8,0,0,1-.19,1.29,5.72,5.72,0,0,1-.43,1.14,4.46,4.46,0,0,1-.63.93,3.09,3.09,0,0,1-.78.64,1.42,1.42,0,0,1-.88.26.75.75,0,0,1-.51-.27v.37a.54.54,0,0,1-.07.27.46.46,0,0,1-.17.19l-.33.19a.15.15,0,0,1-.17,0,.26.26,0,0,1-.07-.19v-7.81a.77.77,0,0,1,.07-.27.53.53,0,0,1,.17-.19l.33-.19a.13.13,0,0,1,.17,0,.2.2,0,0,1,.07.18v2.63a4.86,4.86,0,0,1,.5-.84A2.78,2.78,0,0,1,192.24,293.34Zm-1.39,4.52a1.25,1.25,0,0,0,.4,1c.23.17.53.14.9-.07a2.32,2.32,0,0,0,.92-1,4,4,0,0,0,.38-1.58c0-.22,0-.45,0-.66a1.6,1.6,0,0,0-.38-1.14c-.22-.21-.53-.2-.92,0a2.26,2.26,0,0,0-.9,1,3.84,3.84,0,0,0-.4,1.53c0,.13,0,.29,0,.48S190.84,297.75,190.85,297.86Z" style="fill:#455a64"></path><path d="M197.74,290.28a.14.14,0,0,1,.17,0,.22.22,0,0,1,.07.18v.38a.68.68,0,0,1-.07.27.46.46,0,0,1-.17.19l-.52.3a2.08,2.08,0,0,0-1,2V297a.54.54,0,0,1-.07.27.46.46,0,0,1-.17.19l-.33.19a.14.14,0,0,1-.17,0s-.07-.09-.07-.18V292a.57.57,0,0,1,.07-.27.53.53,0,0,1,.17-.19l.33-.19a.13.13,0,0,1,.17,0s.07.09.07.18v.37a2.81,2.81,0,0,1,.43-.77,2.31,2.31,0,0,1,.65-.54Z" style="fill:#455a64"></path><path d="M198.44,292.37a5.68,5.68,0,0,1,.2-1.14,6.6,6.6,0,0,1,.42-1.07,4.5,4.5,0,0,1,.62-.92,3.22,3.22,0,0,1,.81-.67,2,2,0,0,1,.86-.29.94.94,0,0,1,.65.23,1.65,1.65,0,0,1,.41.72,4.28,4.28,0,0,1,.14,1.16v.33a.68.68,0,0,1-.07.26.58.58,0,0,1-.17.2L199.24,293V293c0,.53.13.88.37,1a.82.82,0,0,0,.88-.07,2.41,2.41,0,0,0,.73-.61,3.52,3.52,0,0,0,.4-.64,1.6,1.6,0,0,1,.13-.21.44.44,0,0,1,.16-.12l.26-.16a.17.17,0,0,1,.18,0,.18.18,0,0,1,.07.19,2.21,2.21,0,0,1-.16.56,3.28,3.28,0,0,1-.36.69,5.15,5.15,0,0,1-.59.71,4,4,0,0,1-.82.62,1.69,1.69,0,0,1-.81.26,1,1,0,0,1-.62-.22,1.5,1.5,0,0,1-.42-.61,3.25,3.25,0,0,1-.2-1A6.73,6.73,0,0,1,198.44,292.37Zm.8-.42,2.51-1.45v0a1.11,1.11,0,0,0-.35-1c-.23-.16-.53-.12-.91.1a2,2,0,0,0-.49.39,3.35,3.35,0,0,0-.39.55,3.26,3.26,0,0,0-.27.66,2.83,2.83,0,0,0-.1.71Z" style="fill:#455a64"></path><path d="M205.59,288.24a5.59,5.59,0,0,1,.2-1.13,6.37,6.37,0,0,1,.42-1.08,4.5,4.5,0,0,1,.62-.92,3.44,3.44,0,0,1,.81-.67,2,2,0,0,1,.86-.29.94.94,0,0,1,.65.23,1.55,1.55,0,0,1,.41.72,4.31,4.31,0,0,1,.14,1.17v.32a.54.54,0,0,1-.07.26.58.58,0,0,1-.17.2l-3.07,1.77v.07c0,.53.13.88.37,1a.82.82,0,0,0,.88-.07,2.29,2.29,0,0,0,.73-.61,3.52,3.52,0,0,0,.4-.64,1.6,1.6,0,0,1,.13-.21.55.55,0,0,1,.16-.12l.27-.16a.15.15,0,0,1,.17,0,.19.19,0,0,1,.07.2,2.27,2.27,0,0,1-.16.55,3.28,3.28,0,0,1-.36.69,4.11,4.11,0,0,1-.59.71,4,4,0,0,1-.82.62,1.69,1.69,0,0,1-.81.26,1,1,0,0,1-.62-.22,1.5,1.5,0,0,1-.42-.61,3.18,3.18,0,0,1-.2-1A6.73,6.73,0,0,1,205.59,288.24Zm.8-.42,2.51-1.45v0a1.11,1.11,0,0,0-.35-1,.84.84,0,0,0-.91.1,2,2,0,0,0-.48.39,2.88,2.88,0,0,0-.4.55,2.75,2.75,0,0,0-.26.66,2.45,2.45,0,0,0-.11.71Z" style="fill:#455a64"></path><path d="M213.42,285.7a.45.45,0,0,0-.09-.32.36.36,0,0,0-.28-.1,2.65,2.65,0,0,0-.48.08l-.67.18c-.49.15-.82.12-1-.08a1.34,1.34,0,0,1-.29-.94,2.89,2.89,0,0,1,.11-.74A3.45,3.45,0,0,1,211,283a3.25,3.25,0,0,1,.54-.71,3.53,3.53,0,0,1,.77-.58,2.38,2.38,0,0,1,.76-.31,1.11,1.11,0,0,1,.55,0,.66.66,0,0,1,.34.24.71.71,0,0,1,.12.38.38.38,0,0,1-.07.26.49.49,0,0,1-.17.2l-.29.17-.13,0a.16.16,0,0,1-.14-.05.44.44,0,0,0-.35-.14,1.25,1.25,0,0,0-.62.22,2.14,2.14,0,0,0-.67.59,1.18,1.18,0,0,0-.25.7.56.56,0,0,0,.07.33.29.29,0,0,0,.23.1,1.17,1.17,0,0,0,.42-.06l.66-.18a1.82,1.82,0,0,1,.69-.09.83.83,0,0,1,.44.16.64.64,0,0,1,.24.37,1.82,1.82,0,0,1,.08.55,2.69,2.69,0,0,1-.13.76,3.61,3.61,0,0,1-.37.8,4.08,4.08,0,0,1-.59.74,3.57,3.57,0,0,1-.78.61,2.38,2.38,0,0,1-.78.31,1.56,1.56,0,0,1-.58,0,.75.75,0,0,1-.37-.24.73.73,0,0,1-.14-.38.54.54,0,0,1,.07-.26.42.42,0,0,1,.17-.2l.33-.18a.34.34,0,0,1,.12-.06.15.15,0,0,1,.14.06.46.46,0,0,0,.39.18,1.49,1.49,0,0,0,.65-.23,2.46,2.46,0,0,0,.39-.29,2.31,2.31,0,0,0,.34-.36,2,2,0,0,0,.23-.39A1,1,0,0,0,213.42,285.7Z" style="fill:#455a64"></path><polygon points="169.48 292.64 167.73 290.9 171.23 288.88 169.48 292.64" style="fill:#C53F3F"></polygon><polygon points="219.33 258.61 216.91 257.75 216.91 259.44 212.24 262.13 212.24 263.29 216.91 260.59 216.91 262.28 219.33 258.61" style="fill:#C53F3F"></polygon><polygon points="207.68 268.33 210.11 269.19 210.11 267.5 214.78 264.81 214.78 263.65 210.11 266.35 210.11 264.66 207.68 268.33" style="fill:#C53F3F"></polygon><path d="M228.6,258.68a.4.4,0,0,1-.23-.08l-3.82-2.89a.38.38,0,0,1-.07-.52.37.37,0,0,1,.53-.07l3.81,2.88a.38.38,0,0,1,.08.53A.42.42,0,0,1,228.6,258.68Z" style="fill:#455a64"></path><path d="M224.78,260.88a.47.47,0,0,1-.17,0,.37.37,0,0,1-.16-.51l3.82-7.29a.36.36,0,0,1,.5-.16.37.37,0,0,1,.16.5l-3.82,7.3A.37.37,0,0,1,224.78,260.88Z" style="fill:#455a64"></path><path d="M134,357.64a.37.37,0,0,1-.32-.18.39.39,0,0,1,.14-.52l96.75-55.86a.37.37,0,0,1,.51.14.36.36,0,0,1-.13.51l-96.76,55.86A.32.32,0,0,1,134,357.64Z" style="fill:#e0e0e0"></path><path d="M144.77,356.75v5.78l.65-.38v-5.84l.74.55.46-.87-1.5-1.13-1.49,2.85.46.35Zm2.55.14-1,.56v.87l1-.57s.07,0,.07.05v5.93a.16.16,0,0,1-.07.13l-4.44,2.56s-.07,0-.07-.05v-5.92a.16.16,0,0,1,.07-.13l1-.57v-.87l-1,.57a1.71,1.71,0,0,0-.72,1.37v5.93c0,.52.32.77.72.54l4.44-2.57a1.69,1.69,0,0,0,.72-1.37v-5.92C148,356.9,147.72,356.66,147.32,356.89Z" style="fill:#C53F3F"></path><path d="M184.81,340.6l-3.18,1.84c-.44.25-.81,0-.81-.62v-6.11a2,2,0,0,1,.81-1.55l3.18-1.83c.44-.26.81,0,.81.61v6.11A2,2,0,0,1,184.81,340.6ZM181.63,335a.38.38,0,0,0-.16.31v6.11c0,.12.07.17.16.12l3.18-1.83a.39.39,0,0,0,.16-.32v-6.1c0-.12-.07-.18-.16-.13Z" style="fill:#C53F3F"></path><path d="M183,343.67l-3,1.7c-.5.3-.92,0-.92-.69v-5.82l.65-.38v5.82c0,.2.13.29.27.21l3-1.71Z" style="fill:#C53F3F"></path><path d="M223,312.06a2.16,2.16,0,0,1-.9,1.72c-.5.29-.9,0-.9-.68a2.16,2.16,0,0,1,.9-1.73C222.64,311.09,223,311.39,223,312.06Z" style="fill:#C53F3F"></path><path d="M223,316a2.16,2.16,0,0,1-.9,1.72c-.5.29-.9,0-.9-.68a2.16,2.16,0,0,1,.9-1.73C222.64,315.05,223,315.35,223,316Z" style="fill:#C53F3F"></path><path d="M223,320a2.16,2.16,0,0,1-.9,1.73c-.5.29-.9,0-.9-.68a2.16,2.16,0,0,1,.9-1.73C222.64,319,223,319.31,223,320Z" style="fill:#C53F3F"></path></g><g id="freepik--chart--inject-337"><path d="M126.35,194.78l101-58.32c2.39-1.38,4.33-.27,4.33,2.5v70.61a9.56,9.56,0,0,1-4.33,7.5l-101,58.33c-2.39,1.38-4.33.26-4.33-2.5V202.28A9.58,9.58,0,0,1,126.35,194.78Z" style="fill:#e0e0e0"></path><path d="M127.23,277.44l1.67,1a3.28,3.28,0,0,0,3,0l101-58.34a3.25,3.25,0,0,0,1.48-2.56V143.42a3.28,3.28,0,0,0-1.48-2.57l-1.67-1a3.26,3.26,0,0,0-2.95,0l-101,58.34a3.26,3.26,0,0,0-1.47,2.56v74.09A3.26,3.26,0,0,0,127.23,277.44Z" style="fill:#C53F3F"></path><path d="M127.23,277.44l1.67,1a3.28,3.28,0,0,0,3,0l101-58.34a3.25,3.25,0,0,0,1.48-2.56V143.42a3.28,3.28,0,0,0-1.48-2.57l-1.67-1a3.26,3.26,0,0,0-2.95,0l-101,58.34a3.26,3.26,0,0,0-1.47,2.56v74.09A3.26,3.26,0,0,0,127.23,277.44Z" style="fill:#fff;opacity:0.55"></path><path d="M131.86,278.41l101-58.34a3.25,3.25,0,0,0,1.48-2.56V143.42c0-.95-.66-1.33-1.48-.86l-101,58.33a3.29,3.29,0,0,0-1.47,2.56v74.1C130.38,278.49,131,278.88,131.86,278.41Z" style="fill:#fff"></path><path d="M233.55,142.93c.22,0,.25.3.25.49v74.09a2.72,2.72,0,0,1-1.2,2.07l-101,58.33a.82.82,0,0,1-.38.13c-.21,0-.24-.31-.24-.49v-74.1a2.69,2.69,0,0,1,1.19-2.06l101-58.34a.83.83,0,0,1,.38-.12m0-.57a1.31,1.31,0,0,0-.66.2l-101,58.33a3.29,3.29,0,0,0-1.47,2.56v74.1c0,.67.33,1.06.81,1.06a1.45,1.45,0,0,0,.67-.2l101-58.34a3.25,3.25,0,0,0,1.48-2.56V143.42c0-.67-.34-1.06-.82-1.06Z" style="fill:#C53F3F"></path><path d="M131.63,278.51a3.25,3.25,0,0,1-2.73-.11l-1.67-1a3.26,3.26,0,0,1-1.47-2.56v-74.1a3,3,0,0,1,.43-1.45l4.62,2.67a3,3,0,0,0-.44,1.45v74.1C130.37,278.41,130.92,278.8,131.63,278.51Z" style="fill:#C53F3F"></path><path d="M131.63,278.51a3.25,3.25,0,0,1-2.73-.11l-1.67-1a3.26,3.26,0,0,1-1.47-2.56v-74.1a3,3,0,0,1,.43-1.45l4.62,2.67a3,3,0,0,0-.44,1.45v74.1C130.37,278.41,130.92,278.8,131.63,278.51Z" style="fill:#fff;opacity:0.1"></path><path d="M140,209.92a.11.11,0,0,1,.15,0,.18.18,0,0,1,.06.16v.76a.53.53,0,0,1-.06.24.55.55,0,0,1-.15.18l-3.53,2q-.09.06-.15,0a.19.19,0,0,1-.07-.16v-6.92a.55.55,0,0,1,.07-.24.36.36,0,0,1,.15-.17l3.46-2q.09-.06.15,0a.17.17,0,0,1,.07.16v.76a.44.44,0,0,1-.07.24.39.39,0,0,1-.15.18l-2.59,1.49v1.71l2.41-1.4a.15.15,0,0,1,.16,0,.21.21,0,0,1,.06.17v.76a.6.6,0,0,1-.06.24.44.44,0,0,1-.16.17l-2.41,1.4v1.77Z" style="fill:#C53F3F"></path><path d="M145,208.05a.53.53,0,0,1-.06.24.36.36,0,0,1-.15.17l-.61.35a.14.14,0,0,1-.16,0,.22.22,0,0,1-.06-.17v-2.72a1.38,1.38,0,0,0-.22-.9c-.15-.17-.38-.16-.69,0a1.6,1.6,0,0,0-.67.77,2.64,2.64,0,0,0-.25,1.17v2.72a.47.47,0,0,1-.07.24.36.36,0,0,1-.15.17l-.61.35q-.09.06-.15,0a.18.18,0,0,1-.06-.16v-5a.53.53,0,0,1,.06-.24.36.36,0,0,1,.15-.17l.61-.36a.14.14,0,0,1,.15,0,.18.18,0,0,1,.07.17V205a4.52,4.52,0,0,1,.49-.74,2.45,2.45,0,0,1,.67-.57,1.78,1.78,0,0,1,.81-.27.76.76,0,0,1,.54.24,1.51,1.51,0,0,1,.28.64,4.22,4.22,0,0,1,.08.91Z" style="fill:#C53F3F"></path><path d="M147.93,207.74a2.06,2.06,0,0,0,.35-.27,1.88,1.88,0,0,0,.32-.41,2,2,0,0,0,.33-1.11v-.39a2.43,2.43,0,0,1-.17.3,2.6,2.6,0,0,1-.25.36,3.91,3.91,0,0,1-.35.36,2.92,2.92,0,0,1-.44.32,1.39,1.39,0,0,1-.73.21.8.8,0,0,1-.55-.24,1.38,1.38,0,0,1-.36-.59,2.81,2.81,0,0,1-.15-.86c0-.11,0-.23,0-.37s0-.27,0-.38a4.83,4.83,0,0,1,.15-1,5.06,5.06,0,0,1,.36-1,3.89,3.89,0,0,1,.55-.87,2.53,2.53,0,0,1,.73-.63,1.84,1.84,0,0,1,.44-.2,1.56,1.56,0,0,1,.35,0,.61.61,0,0,1,.25.07.56.56,0,0,1,.17.11v-.25a.44.44,0,0,1,.07-.24.36.36,0,0,1,.15-.17l.61-.35a.12.12,0,0,1,.15,0,.22.22,0,0,1,.06.17v5a4.59,4.59,0,0,1-.54,2.27,3.91,3.91,0,0,1-1.5,1.52,2.26,2.26,0,0,1-.75.3,1.33,1.33,0,0,1-.61,0,.79.79,0,0,1-.41-.31,1,1,0,0,1-.17-.53.6.6,0,0,1,.06-.24.44.44,0,0,1,.16-.17l.55-.32a.19.19,0,0,1,.19,0l.13.11a.42.42,0,0,0,.29.14A1.22,1.22,0,0,0,147.93,207.74Zm-1-3.6a3,3,0,0,0,0,.6c0,.45.14.72.32.81a.65.65,0,0,0,.67-.08,1.83,1.83,0,0,0,.66-.69,2.43,2.43,0,0,0,.31-1.06c0-.12,0-.26,0-.42a3.9,3.9,0,0,0,0-.4.86.86,0,0,0-.31-.7.62.62,0,0,0-.66.06,1.85,1.85,0,0,0-.67.69A2.7,2.7,0,0,0,147,204.14Z" style="fill:#C53F3F"></path><path d="M152.13,204a.55.55,0,0,1-.07.24.36.36,0,0,1-.15.17l-.61.35a.12.12,0,0,1-.15,0,.18.18,0,0,1-.07-.17v-7a.44.44,0,0,1,.07-.24.45.45,0,0,1,.15-.18l.61-.35a.14.14,0,0,1,.15,0,.2.2,0,0,1,.07.16Z" style="fill:#C53F3F"></path><path d="M154.1,195.5a.15.15,0,0,1,.16,0,.21.21,0,0,1,.06.17v.83a.53.53,0,0,1-.06.24.48.48,0,0,1-.16.18l-.69.4a.14.14,0,0,1-.15,0,.21.21,0,0,1-.07-.17v-.83a.55.55,0,0,1,.07-.24.45.45,0,0,1,.15-.18Zm.18,7.22a.49.49,0,0,1-.07.24.36.36,0,0,1-.15.17l-.61.35q-.09.06-.15,0a.18.18,0,0,1-.06-.16v-5a.53.53,0,0,1,.06-.24.45.45,0,0,1,.15-.18l.61-.35a.14.14,0,0,1,.15,0,.18.18,0,0,1,.07.17Z" style="fill:#C53F3F"></path><path d="M157.66,199.46c0-.08,0-.14-.06-.16a.25.25,0,0,0-.19,0,2,2,0,0,0-.38.09l-.59.17a1.47,1.47,0,0,1-.59.07.63.63,0,0,1-.37-.16.77.77,0,0,1-.2-.37,3.06,3.06,0,0,1-.05-.56,2.26,2.26,0,0,1,.11-.7,2.85,2.85,0,0,1,.33-.74,4.09,4.09,0,0,1,.51-.69,3.09,3.09,0,0,1,.7-.55,2.43,2.43,0,0,1,.7-.29,1,1,0,0,1,.53,0,.57.57,0,0,1,.34.25.83.83,0,0,1,.13.42.36.36,0,0,1-.06.24.35.35,0,0,1-.15.18l-.62.36c-.08,0-.14.06-.18,0l-.14-.06a.5.5,0,0,0-.19,0,1.14,1.14,0,0,0-.36.15,2.38,2.38,0,0,0-.43.34.68.68,0,0,0-.18.45.24.24,0,0,0,0,.18.18.18,0,0,0,.16,0,1.41,1.41,0,0,0,.35-.06l.57-.17c.48-.14.82-.12,1,.06a1.15,1.15,0,0,1,.29.9,2.29,2.29,0,0,1-.12.7,3.16,3.16,0,0,1-.35.75,4.06,4.06,0,0,1-.56.71,3.58,3.58,0,0,1-.75.58,2.44,2.44,0,0,1-.75.3,1.08,1.08,0,0,1-.55,0,.61.61,0,0,1-.35-.28.84.84,0,0,1-.12-.45.39.39,0,0,1,.06-.24.36.36,0,0,1,.15-.17l.62-.36a.18.18,0,0,1,.18,0l.14.09a.28.28,0,0,0,.21.05.9.9,0,0,0,.41-.16l.25-.16.24-.21a1.3,1.3,0,0,0,.18-.23A.44.44,0,0,0,157.66,199.46Z" style="fill:#C53F3F"></path><path d="M163.48,197.4a.53.53,0,0,1-.06.24.71.71,0,0,1-.15.18l-.62.35a.14.14,0,0,1-.15,0,.2.2,0,0,1-.06-.16v-2.72a1.37,1.37,0,0,0-.23-.9c-.15-.17-.38-.17-.69,0a1.71,1.71,0,0,0-.67.77,2.78,2.78,0,0,0-.24,1.17v2.72a.44.44,0,0,1-.07.24.45.45,0,0,1-.15.18l-.61.35a.14.14,0,0,1-.15,0,.18.18,0,0,1-.07-.17v-7a.44.44,0,0,1,.07-.24.36.36,0,0,1,.15-.17l.61-.35a.12.12,0,0,1,.15,0,.18.18,0,0,1,.07.17v2.28a4.21,4.21,0,0,1,.49-.75,2.55,2.55,0,0,1,.66-.56,1.59,1.59,0,0,1,.82-.27.72.72,0,0,1,.53.24,1.32,1.32,0,0,1,.29.63,5.05,5.05,0,0,1,.08.91Z" style="fill:#C53F3F"></path><path d="M141,221.15a.15.15,0,0,1,.17,0,.22.22,0,0,1,.07.19V229a.54.54,0,0,1-.07.27.46.46,0,0,1-.17.19l-.36.21a.13.13,0,0,1-.17,0s-.07-.09-.07-.18v-3.36L137.23,228v3.35a.54.54,0,0,1-.07.27.4.4,0,0,1-.17.19l-.36.22a.17.17,0,0,1-.17,0,.23.23,0,0,1-.07-.2v-7.69a.54.54,0,0,1,.07-.26.49.49,0,0,1,.17-.2l.36-.21a.13.13,0,0,1,.17,0,.21.21,0,0,1,.07.18v3.27l3.15-1.82v-3.26a.54.54,0,0,1,.07-.27.46.46,0,0,1,.17-.19Z" style="fill:#455a64"></path><path d="M142.45,225a5.66,5.66,0,0,1,.19-1.14,6.37,6.37,0,0,1,.42-1.08,4.94,4.94,0,0,1,.62-.92,3.17,3.17,0,0,1,.81-.66,1.75,1.75,0,0,1,.86-.29.93.93,0,0,1,.65.22,1.47,1.47,0,0,1,.41.72,4,4,0,0,1,.14,1.17v.32a.48.48,0,0,1-.07.26.43.43,0,0,1-.17.2l-3.07,1.77v.07c0,.54.14.88.37,1a.8.8,0,0,0,.88-.07,2.46,2.46,0,0,0,.74-.61,4.07,4.07,0,0,0,.39-.64,1,1,0,0,1,.13-.2.53.53,0,0,1,.16-.13l.27-.16a.17.17,0,0,1,.18,0s.07.09.06.19a2.56,2.56,0,0,1-.15.55,4.59,4.59,0,0,1-.36.69,5.28,5.28,0,0,1-.59.71,4.08,4.08,0,0,1-.83.62,1.56,1.56,0,0,1-.8.26,1,1,0,0,1-.62-.21,1.46,1.46,0,0,1-.43-.62,3.14,3.14,0,0,1-.19-1A6.61,6.61,0,0,1,142.45,225Zm.79-.43,2.51-1.45v0c0-.49-.11-.81-.34-1a.84.84,0,0,0-.92.09,2.16,2.16,0,0,0-.48.39,2.73,2.73,0,0,0-.39.55,2.41,2.41,0,0,0-.27.66,3,3,0,0,0-.11.72Z" style="fill:#455a64"></path><path d="M148.45,224.85a.56.56,0,0,1-.08.27.4.4,0,0,1-.17.19l-.32.19a.15.15,0,0,1-.18,0,.22.22,0,0,1-.07-.18v-7.81a.68.68,0,0,1,.07-.27.47.47,0,0,1,.18-.19l.32-.19c.07,0,.13,0,.17,0a.21.21,0,0,1,.08.18Z" style="fill:#455a64"></path><path d="M150.6,223.61a.68.68,0,0,1-.07.27.53.53,0,0,1-.17.19l-.33.19c-.07,0-.13,0-.17,0a.2.2,0,0,1-.07-.18v-7.81a.54.54,0,0,1,.07-.27.4.4,0,0,1,.17-.19l.33-.19a.15.15,0,0,1,.17,0,.26.26,0,0,1,.07.19Z" style="fill:#455a64"></path><path d="M153.84,215.75a2,2,0,0,1,.86-.3,1,1,0,0,1,.64.17,1.25,1.25,0,0,1,.42.6,2.92,2.92,0,0,1,.19,1,1.85,1.85,0,0,1,0,.25v.62a1.85,1.85,0,0,1,0,.25,5.89,5.89,0,0,1-.19,1.2,4.77,4.77,0,0,1-.42,1.07,4.58,4.58,0,0,1-.64.92,3.84,3.84,0,0,1-.86.69,2.16,2.16,0,0,1-.86.3,1,1,0,0,1-.64-.18,1.19,1.19,0,0,1-.42-.58,3.26,3.26,0,0,1-.2-1c0-.06,0-.13,0-.23s0-.2,0-.31,0-.21,0-.31,0-.19,0-.26a5.92,5.92,0,0,1,.2-1.19,4.93,4.93,0,0,1,.42-1.09,4.81,4.81,0,0,1,.64-.91A3.84,3.84,0,0,1,153.84,215.75Zm1.3,3c0-.14,0-.31,0-.5s0-.36,0-.5a2.47,2.47,0,0,0-.11-.6.94.94,0,0,0-.25-.39.6.6,0,0,0-.4-.13,1.14,1.14,0,0,0-.54.18,2.17,2.17,0,0,0-.55.45,3.27,3.27,0,0,0-.39.58,3.06,3.06,0,0,0-.25.68,4.57,4.57,0,0,0-.12.74c0,.15,0,.32,0,.51s0,.36,0,.49a2.46,2.46,0,0,0,.12.59.84.84,0,0,0,.25.4.59.59,0,0,0,.39.13,1.17,1.17,0,0,0,.55-.19,2.12,2.12,0,0,0,.54-.44,2.67,2.67,0,0,0,.4-.59,3.42,3.42,0,0,0,.25-.68A4.43,4.43,0,0,0,155.14,218.71Z" style="fill:#455a64"></path><path d="M157,219.3a1.16,1.16,0,0,1,.11-.38.68.68,0,0,1,.27-.31l.52-.3a.12.12,0,0,1,.14,0,.21.21,0,0,1,0,.15.28.28,0,0,1,0,.09l-.46,1.87a1.44,1.44,0,0,1-.12.32.64.64,0,0,1-.26.28l-.23.13a.1.1,0,0,1-.13,0,.18.18,0,0,1-.06-.15v0Z" style="fill:#455a64"></path><path d="M162.24,211.71c0-.13.12-.26.19-.4a3.38,3.38,0,0,1,.24-.41,3.66,3.66,0,0,1,.33-.37,1.85,1.85,0,0,1,.44-.32,1.34,1.34,0,0,1,.9-.25.76.76,0,0,1,.56.44c.08-.19.16-.37.25-.55a3.39,3.39,0,0,1,.3-.51,3.31,3.31,0,0,1,.39-.44,3,3,0,0,1,.52-.38c.6-.34,1-.36,1.31,0a2.79,2.79,0,0,1,.41,1.74v3.3a.54.54,0,0,1-.07.26.58.58,0,0,1-.17.2l-.33.19c-.07,0-.12,0-.17,0a.22.22,0,0,1-.07-.19v-3.17a1.84,1.84,0,0,0-.27-1.2c-.18-.19-.44-.18-.79,0a2,2,0,0,0-.76.86,3.28,3.28,0,0,0-.29,1.45v3.26a.54.54,0,0,1-.07.27.53.53,0,0,1-.17.19l-.33.19a.13.13,0,0,1-.17,0s-.07-.09-.07-.18v-3.18a1.79,1.79,0,0,0-.27-1.19c-.18-.19-.44-.18-.79,0a2,2,0,0,0-.76.86,3.33,3.33,0,0,0-.29,1.46v3.26a.54.54,0,0,1-.07.26.43.43,0,0,1-.17.2l-.33.19a.13.13,0,0,1-.17,0,.21.21,0,0,1-.07-.18v-5.55a.54.54,0,0,1,.07-.27.46.46,0,0,1,.17-.19l.33-.19a.15.15,0,0,1,.17,0,.22.22,0,0,1,.07.19Z" style="fill:#455a64"></path><path d="M170.58,214.37a1.86,1.86,0,0,1-.09.24.4.4,0,0,1-.17.19L170,215a.14.14,0,0,1-.15,0,.21.21,0,0,1-.06-.17.19.19,0,0,1,0-.08l.85-3-1.76-4.2a.19.19,0,0,1,0-.08.53.53,0,0,1,.06-.24.42.42,0,0,1,.15-.17l.37-.21c.07,0,.13,0,.17,0a.38.38,0,0,1,.09.13l1.37,3.26,1.39-4.85a1.17,1.17,0,0,1,.09-.24.49.49,0,0,1,.17-.2l.37-.21c.06,0,.11,0,.15,0a.18.18,0,0,1,.06.16V205Z" style="fill:#455a64"></path><path d="M180.25,206.49a.68.68,0,0,1-.07.27.53.53,0,0,1-.17.19l-.33.19c-.07,0-.13,0-.17,0a.19.19,0,0,1-.08-.18v-3.14c0-.61-.1-1-.33-1.18s-.52-.15-.92.08a2.36,2.36,0,0,0-.9,1,3.34,3.34,0,0,0-.35,1.57v3.14a.54.54,0,0,1-.07.27.4.4,0,0,1-.17.19l-.33.19a.14.14,0,0,1-.17,0,.22.22,0,0,1-.07-.18v-5.55a.68.68,0,0,1,.07-.26.58.58,0,0,1,.17-.2l.33-.19c.07,0,.13,0,.17,0a.22.22,0,0,1,.07.19v.36a5,5,0,0,1,.51-.84,2.85,2.85,0,0,1,.88-.76,1.78,1.78,0,0,1,.78-.27.91.91,0,0,1,.61.17,1.2,1.2,0,0,1,.39.61,3.13,3.13,0,0,1,.15,1Z" style="fill:#455a64"></path><path d="M181.21,204.7a3.1,3.1,0,0,1,.14-.92,3.73,3.73,0,0,1,.4-.83,4.56,4.56,0,0,1,.58-.75c.23-.23.46-.44.71-.65l1.26-1v-.15c0-.4-.1-.65-.3-.74a.85.85,0,0,0-.74.13,1.75,1.75,0,0,0-.6.53,4,4,0,0,0-.34.65.87.87,0,0,1-.12.2.59.59,0,0,1-.17.13l-.26.16a.15.15,0,0,1-.18,0c-.05,0-.07-.09-.07-.18a2.64,2.64,0,0,1,.16-.63,3.45,3.45,0,0,1,.38-.7,3.78,3.78,0,0,1,.54-.67,2.66,2.66,0,0,1,.66-.51,1.89,1.89,0,0,1,.74-.28.88.88,0,0,1,.59.11,1.07,1.07,0,0,1,.39.52,2.7,2.7,0,0,1,.13.93v3.63a.54.54,0,0,1-.07.27.46.46,0,0,1-.17.19l-.33.19a.14.14,0,0,1-.17,0,.22.22,0,0,1-.07-.18v-.49a2.18,2.18,0,0,1-.25.54,3.21,3.21,0,0,1-.39.52,4.65,4.65,0,0,1-.45.44,4.31,4.31,0,0,1-.44.32,2,2,0,0,1-.64.24.84.84,0,0,1-.49-.07.73.73,0,0,1-.32-.35A1.57,1.57,0,0,1,181.21,204.7Zm1.64-.3a2.22,2.22,0,0,0,.59-.47,3.18,3.18,0,0,0,.46-.63,3.23,3.23,0,0,0,.3-.72,2.93,2.93,0,0,0,.1-.78v-.29l-1.05.83a5.09,5.09,0,0,0-.9.9,1.48,1.48,0,0,0-.33.87.59.59,0,0,0,0,.23.39.39,0,0,0,.14.17.36.36,0,0,0,.26,0A1,1,0,0,0,182.85,204.4Z" style="fill:#455a64"></path><path d="M187.23,197.28c.05-.13.12-.26.19-.4a3.26,3.26,0,0,1,.24-.4,1.91,1.91,0,0,1,.33-.37,2.2,2.2,0,0,1,.44-.33,1.4,1.4,0,0,1,.9-.25.8.8,0,0,1,.56.44l.24-.54a3.3,3.3,0,0,1,.31-.51,2.38,2.38,0,0,1,.39-.45,2.55,2.55,0,0,1,.52-.37c.59-.35,1-.36,1.31,0a2.75,2.75,0,0,1,.41,1.73v3.3a.68.68,0,0,1-.07.27.53.53,0,0,1-.17.19l-.33.19c-.07,0-.13,0-.17,0a.2.2,0,0,1-.07-.18v-3.18a1.84,1.84,0,0,0-.27-1.2c-.18-.18-.44-.18-.79,0a2,2,0,0,0-.76.86,3.15,3.15,0,0,0-.29,1.45v3.26a.68.68,0,0,1-.07.27.46.46,0,0,1-.17.19l-.33.2c-.07,0-.13,0-.17,0a.22.22,0,0,1-.07-.19v-3.18a1.79,1.79,0,0,0-.27-1.19c-.18-.19-.44-.18-.79,0a2,2,0,0,0-.76.86,3.25,3.25,0,0,0-.29,1.45v3.26a.68.68,0,0,1-.07.27.53.53,0,0,1-.17.19l-.33.19c-.07,0-.13,0-.17,0s-.07-.09-.07-.18v-5.55a.57.57,0,0,1,.07-.27.4.4,0,0,1,.17-.19l.33-.19a.14.14,0,0,1,.17,0,.22.22,0,0,1,.07.18Z" style="fill:#455a64"></path><path d="M194.15,195.1a5.05,5.05,0,0,1,.2-1.14,5.6,5.6,0,0,1,.41-1.08,4.86,4.86,0,0,1,.62-.91,3,3,0,0,1,.81-.67,1.86,1.86,0,0,1,.86-.29.88.88,0,0,1,.65.23,1.39,1.39,0,0,1,.41.71,4,4,0,0,1,.14,1.17v.32a.54.54,0,0,1-.07.27.46.46,0,0,1-.17.19l-3.07,1.77v.07c0,.54.14.88.37,1a.8.8,0,0,0,.88-.07,2.34,2.34,0,0,0,.74-.61,5.12,5.12,0,0,0,.4-.64,1,1,0,0,1,.12-.2.53.53,0,0,1,.16-.13l.27-.15a.15.15,0,0,1,.18,0c.05,0,.07.09.06.19a2.79,2.79,0,0,1-.15.56,3.48,3.48,0,0,1-.36.68,5.28,5.28,0,0,1-.59.71,4.08,4.08,0,0,1-.83.62,1.56,1.56,0,0,1-.8.26,1,1,0,0,1-.62-.21,1.36,1.36,0,0,1-.42-.62,2.85,2.85,0,0,1-.2-1A6.61,6.61,0,0,1,194.15,195.1Zm.79-.43,2.51-1.45v0a1.09,1.09,0,0,0-.34-1,.84.84,0,0,0-.92.09,2.16,2.16,0,0,0-.48.39,2.73,2.73,0,0,0-.39.55,2.55,2.55,0,0,0-.27.66,3,3,0,0,0-.11.72Z" style="fill:#455a64"></path><path d="M202.42,186.56a.56.56,0,0,1-.08.27.4.4,0,0,1-.17.19l-.5.3a.17.17,0,0,1-.17,0,.23.23,0,0,1-.08-.19v-.67a.56.56,0,0,1,.08-.27.42.42,0,0,1,.17-.2l.5-.29c.07,0,.13,0,.17,0a.21.21,0,0,1,.08.18Zm-.09,7.18a.56.56,0,0,1-.08.27.36.36,0,0,1-.17.19l-.32.19a.15.15,0,0,1-.17,0,.23.23,0,0,1-.08-.19v-5.54a.56.56,0,0,1,.08-.27.36.36,0,0,1,.17-.19l.32-.2c.07,0,.13,0,.17,0a.23.23,0,0,1,.08.19Z" style="fill:#455a64"></path><path d="M206.31,190.05a.47.47,0,0,0-.1-.32.38.38,0,0,0-.28-.09,2,2,0,0,0-.48.07l-.67.19c-.48.14-.82.11-1-.09a1.27,1.27,0,0,1-.29-.93,2.52,2.52,0,0,1,.11-.75,3,3,0,0,1,.32-.75,3.86,3.86,0,0,1,.53-.71,3.79,3.79,0,0,1,.77-.58,2.48,2.48,0,0,1,.76-.31,1.1,1.1,0,0,1,.55,0,.66.66,0,0,1,.34.24.69.69,0,0,1,.13.37.6.6,0,0,1-.07.27.53.53,0,0,1-.17.19l-.3.17-.13.05a.14.14,0,0,1-.14-.06.43.43,0,0,0-.34-.14,1.31,1.31,0,0,0-.63.22,2.14,2.14,0,0,0-.67.59,1.18,1.18,0,0,0-.25.71.52.52,0,0,0,.07.32.29.29,0,0,0,.23.1,1.25,1.25,0,0,0,.43-.06l.65-.17a2.15,2.15,0,0,1,.69-.1.86.86,0,0,1,.45.16.8.8,0,0,1,.24.37,1.88,1.88,0,0,1,.07.55,2.44,2.44,0,0,1-.13.77,3.76,3.76,0,0,1-.37.79,4.52,4.52,0,0,1-.59.75,3.59,3.59,0,0,1-.78.6,2.42,2.42,0,0,1-.77.31,1.37,1.37,0,0,1-.58,0,.61.61,0,0,1-.37-.24.59.59,0,0,1-.14-.37.45.45,0,0,1,.06-.27.47.47,0,0,1,.18-.19l.32-.19.13-.05s.09,0,.13.05a.46.46,0,0,0,.39.18,1.41,1.41,0,0,0,.65-.23,3.16,3.16,0,0,0,.39-.28,2.92,2.92,0,0,0,.34-.37,1.78,1.78,0,0,0,.24-.39A.92.92,0,0,0,206.31,190.05Z" style="fill:#455a64"></path><polygon points="167.14 194.24 165.39 192.49 168.89 190.47 167.14 194.24" style="fill:#C53F3F"></polygon><polygon points="219.33 158.86 216.91 158 216.91 159.69 212.24 162.38 212.24 163.54 216.91 160.84 216.91 162.53 219.33 158.86" style="fill:#C53F3F"></polygon><polygon points="207.68 168.58 210.11 169.44 210.11 167.75 214.78 165.06 214.78 163.9 210.11 166.6 210.11 164.91 207.68 168.58" style="fill:#C53F3F"></polygon><path d="M228.6,158.92a.34.34,0,0,1-.23-.08L224.55,156a.38.38,0,1,1,.46-.6l3.81,2.89a.37.37,0,0,1,.08.52A.38.38,0,0,1,228.6,158.92Z" style="fill:#455a64"></path><path d="M224.78,161.12a.33.33,0,0,1-.17,0,.37.37,0,0,1-.16-.51l3.82-7.29a.38.38,0,0,1,.5-.16.38.38,0,0,1,.16.51l-3.82,7.29A.35.35,0,0,1,224.78,161.12Z" style="fill:#455a64"></path><path d="M144,257.56l-1.9,3.55-1.22.7a1.12,1.12,0,0,0-.47.9V265c0,.35.21.51.47.36l1.25-.72,1.87,1.28c.21.14.56-.25.56-.64v-7.75C144.56,257.17,144.21,257.17,144,257.56Z" style="fill:#C53F3F"></path><path d="M146.88,260.09a5.68,5.68,0,0,1-1.26,3.38v-5.32C146.36,258.2,146.88,258.91,146.88,260.09Z" style="fill:#C53F3F"></path><path d="M146.88,260.09a5.68,5.68,0,0,1-1.26,3.38v-5.32C146.36,258.2,146.88,258.91,146.88,260.09Z" style="fill:#C53F3F"></path><path d="M145.62,263.47v-5.32c.74.05,1.26.76,1.26,1.94A5.68,5.68,0,0,1,145.62,263.47Z" style="fill:#C53F3F"></path><path d="M148.78,259a10.31,10.31,0,0,1-3.16,7.16v-1.23a8.2,8.2,0,0,0,2.25-5.41c0-1.93-.94-3-2.25-2.79v-1.25C147.44,255,148.78,256.39,148.78,259Z" style="fill:#C53F3F"></path><path d="M185.67,233.8l-1.24.72-.62-.85-2.88,1.66-.62,1.57-1.24.71a2.12,2.12,0,0,0-.88,1.68v6.4c0,.66.39.95.88.67l6.6-3.81a2.12,2.12,0,0,0,.89-1.69v-6.4C186.56,233.81,186.16,233.52,185.67,233.8Zm-3.3,9.15c-1.22.71-2.22,0-2.22-1.67a5.33,5.33,0,0,1,2.22-4.25c1.22-.71,2.22,0,2.22,1.68A5.31,5.31,0,0,1,182.37,243Z" style="fill:#C53F3F"></path><path d="M183.59,239.29a2.93,2.93,0,0,1-1.22,2.33c-.67.39-1.22,0-1.22-.92a2.93,2.93,0,0,1,1.22-2.33C183,238,183.59,238.4,183.59,239.29Z" style="fill:#C53F3F"></path><path d="M222.14,219.59c-1.21.7-2.19,0-2.19-1.65a.69.69,0,0,1,.29-.55c.15-.09.28,0,.28.22,0,1.19.73,1.74,1.62,1.22a3.88,3.88,0,0,0,1.62-3.09.69.69,0,0,1,.29-.55c.15-.09.28,0,.28.22A5.23,5.23,0,0,1,222.14,219.59Z" style="fill:#C53F3F"></path><path d="M222.14,218.07h0c-.66.38-1.2,0-1.2-.91v-3.58a2.89,2.89,0,0,1,1.2-2.29h0c.66-.38,1.2,0,1.2.91v3.58A2.89,2.89,0,0,1,222.14,218.07Z" style="fill:#C53F3F"></path><path d="M222.14,222c-.16.09-.28,0-.28-.21v-2.36a.7.7,0,0,1,.28-.55c.16-.09.29,0,.29.22v2.36A.67.67,0,0,1,222.14,222Z" style="fill:#C53F3F"></path><path d="M223.22,221.33l-2.15,1.24c-.16.09-.29,0-.29-.21a.7.7,0,0,1,.29-.55l2.15-1.24c.15-.09.28,0,.28.22A.69.69,0,0,1,223.22,221.33Z" style="fill:#C53F3F"></path><path d="M134,257.89a.38.38,0,0,1-.32-.19.37.37,0,0,1,.14-.51l96.75-55.86a.37.37,0,0,1,.51.13.38.38,0,0,1-.13.52l-96.76,55.86A.41.41,0,0,1,134,257.89Z" style="fill:#e0e0e0"></path></g></g><g id="freepik--Character--inject-337"><g id="freepik--character--inject-337"><g id="freepik--Bottom--inject-337"><path d="M368.93,370.53c.12-6.53.09-57,.09-57l26,15.85c-3.83,29.12-7.06,42.86-7.44,47.9h0a5.28,5.28,0,0,0-.17,1c0,5.76-6.92,8.87-12.29,12.71a101,101,0,0,1-14.53,8.95c-3.9,1.85-12.63.57-13.61-1.8,6.54-4.71,13.17-8.93,17.88-14.75C367.38,380.3,368.81,376.6,368.93,370.53Z" style="fill:#c8856a"></path><path d="M336.68,405.77c-.33,0-.84,3.49,1,5,2.09,1.71,8.25,4.52,16.4,3.53s12.56-3.38,15.82-6,7.84-6.21,11.52-7c3.42-.71,7.14-2.17,8.24-3.17s.95-5.45.95-5.45Z" style="fill:#263238"></path><path d="M387.82,375.68s.57-.06.78,1c.24,1.23.51,4.79,1,6.8.74,2.79,1.23,8.52.78,10.79s-6,3.86-9.6,5.15a46.13,46.13,0,0,0-11.56,6.89c-3.83,3-11.88,6-17.19,6-8.1.11-13.35-2-15-4.72-2-3.4-1.23-6.82,8.09-10.9a95.63,95.63,0,0,0,10.07-5.91c5.59-4.08,7.06-5.91,10.13-11.48a13,13,0,0,1,1.35-2.48c.39-.47,1.22-1.16,3.05-.79,1.54.31,6.51,1.14,7.92,1.78,1.25.56,3,1.21,3,2.73a4.79,4.79,0,0,1-.35,1.53c-.11.31-.2.72.09.91s.63,0,.87-.23a23.38,23.38,0,0,0,2.51-2.85,8.66,8.66,0,0,1,1.48-1.42,14.1,14.1,0,0,0,1.59-1A3,3,0,0,0,387.82,375.68Z" style="fill:#37474f"></path><path d="M343.7,397.37c11.73.76,16.22,9.06,16.71,13.3a29,29,0,0,1-8.33,1.65c-8.1.11-13.68-2-15.3-4.71C334.89,404.4,335.37,400.35,343.7,397.37Z" style="fill:#fafafa"></path><path d="M362.09,398.94a.53.53,0,0,0,.36-.13.52.52,0,0,0,.09-.76c-1.64-1.89-7.15-5.84-11.42-5.4a.54.54,0,0,0-.5.59.55.55,0,0,0,.63.48c4-.39,9.1,3.52,10.4,5A.57.57,0,0,0,362.09,398.94Z" style="fill:#f0f0f0"></path><path d="M367.15,396.15a.54.54,0,0,0,.36-.12.52.52,0,0,0,.08-.76c-1.63-1.89-7.15-5.85-11.41-5.4a.54.54,0,1,0,.12,1.07c4-.4,9.11,3.52,10.4,5A.6.6,0,0,0,367.15,396.15Z" style="fill:#f0f0f0"></path><path d="M371.83,393a.63.63,0,0,0,.37-.12.53.53,0,0,0,.08-.77c-1.63-1.89-8.4-6.65-12.64-6.2a.54.54,0,0,0-.51.59.55.55,0,0,0,.63.48c4-.4,10.34,4.32,11.63,5.82A.59.59,0,0,0,371.83,393Z" style="fill:#f0f0f0"></path><path d="M376.42,389.8a.6.6,0,0,0,.36-.12.52.52,0,0,0,.09-.76c-2.24-2.68-9.36-6.7-13.61-6.26a.54.54,0,0,0-.51.6.57.57,0,0,0,.63.48c3.83-.4,10.6,3.48,12.6,5.86A.59.59,0,0,0,376.42,389.8Z" style="fill:#f0f0f0"></path><path d="M425.55,344.24l25.82-3c.68,16.21-.35,30.44.92,44.94.23,2.74,2.54,21.15,2.1,26.87-.65,8.58-11.6,9.31-12.75,4.33s-6.1-28.17-6.39-30.38c-2.11-8.76-4.21-18.58-8.57-37.19C426.49,349,425.76,345,425.55,344.24Z" style="fill:#c8856a"></path><path d="M437.21,420.89c0,5.33,1.43,9.78,3.74,12a9.48,9.48,0,0,0,9.2,2.51c3.56-.89,7.76-3.32,9.09-7.52,1.6-5.08,1-8,.13-12.59Z" style="fill:#263238"></path><path d="M452.14,384.42c1.47.09,2,6.77,2.89,13.44,1,7.16,3.27,10.1,4.14,16,1,6.71.41,10.46-2,14.54s-11.22,8.15-15.62,2.38c-3.58-4.7-4.92-9.74-4.67-16.45a140.15,140.15,0,0,0-.64-17c-.34-5-2.22-9.74-.95-10.31.77,2.52,1.55,6.31,2.06,5.35a10.05,10.05,0,0,0,0-1.9,2.13,2.13,0,0,1,.38-1.62,2.89,2.89,0,0,1,1.63-.71c1.44-.28,5.89-1.39,7.36-1.53.73-.07,1.46-.11,2.2-.11a6.09,6.09,0,0,1,1.86.23,1.31,1.31,0,0,1,.81.67,2.2,2.2,0,0,1,.08.77,5.28,5.28,0,0,0,.2,1.37c.06.2.2.44.41.39s.24-.24.24-.41c0-.81-.12-1.39-.17-2.34,0-.43-.1-1-.11-1.46S452.18,384.85,452.14,384.42Z" style="fill:#37474f"></path><path d="M459.76,417.71c.3,4.16-.17,7.77-2.08,11-2.45,4.09-11.35,7.68-16.33,2.41-2.49-2.63-3.81-6.7-4.14-10.19C439.76,416.38,455.62,413.94,459.76,417.71Z" style="fill:#fafafa"></path><path d="M440.63,414.19l.18-.05c.06,0,7.41-3.71,14-2.33a.54.54,0,0,0,.65-.39.51.51,0,0,0-.41-.61c-7-1.46-14.51,2.28-14.76,2.4a.5.5,0,0,0-.25.69A.55.55,0,0,0,440.63,414.19Z" style="fill:#f0f0f0"></path><path d="M454.45,406.82a.58.58,0,0,0,.46-.35.53.53,0,0,0-.35-.66c-6.61-2-14.47,2.15-14.75,2.29a.51.51,0,0,0-.22.7.57.57,0,0,0,.74.21c.06,0,7.74-4.12,13.89-2.22A.58.58,0,0,0,454.45,406.82Z" style="fill:#f0f0f0"></path><path d="M454,402.1a.55.55,0,0,0,.46-.34.5.5,0,0,0-.34-.65c-7.27-2.38-14.76,2.09-15,2.24a.5.5,0,0,0-.18.71.56.56,0,0,0,.75.17c.06,0,7.31-4.37,14.08-2.15A.65.65,0,0,0,454,402.1Z" style="fill:#f0f0f0"></path><path d="M453.52,396.81a.54.54,0,0,0,.45-.34.5.5,0,0,0-.32-.66c-6.82-2.33-14.83,2.24-15.11,2.4a.5.5,0,0,0-.2.7.56.56,0,0,0,.75.18c.07,0,7.86-4.48,14.19-2.31A.5.5,0,0,0,453.52,396.81Z" style="fill:#ebebeb"></path><path d="M432.13,169.07c.56,3,1.09,4.21,2.17,5.7,6.66,9.14,9.68,18,10.38,34.65,1.72,41.29,1.13,84.1,1.13,84.1.32,3.64,3.47,10.06,5.07,28.92,1.39,16.51,1.18,39.15,1.18,39.15s-18.77,2.78-24.08-2.65c-2.68-12.32-11.33-43.61-16-61.54-4.23-16.28-7.17-40.27-7.17-40.27L398,290.48A96.36,96.36,0,0,1,398,312c-1.21,11.07-6,39.74-6,39.74-3.53,3.73-19.63,3.11-23.65-2.41,0,0-3-48.6-3.27-62-.43-24.88-1.41-72.6,6.78-108.88.33-1.48,1.25-7.5,1.25-7.5C381.84,178.12,420.56,176.94,432.13,169.07Z" style="fill:#263238"></path><path d="M416,180.92a.49.49,0,0,1,.59.34c.5,1.92.88,3.64,1.25,5.31,1.35,6,2.32,10.38,6.94,15A15.94,15.94,0,0,0,436.28,206c-2.1-12.34-6.38-22.17-13.11-30.24a.45.45,0,0,1,.08-.65.51.51,0,0,1,.68.08c6.92,8.3,11.29,18.41,13.38,31.12a.14.14,0,0,1,0,.06v0a115,115,0,0,1,1.4,15.34c.66,23.22,1.66,58.33,2.1,67.54.24,4.94,1.39,9.21,2.85,14.62,1.26,4.66,2.68,9.95,4,17.19,2.79,15.67,1.71,41.47,1.7,41.73a.49.49,0,0,1-.49.44h0a.46.46,0,0,1-.46-.48c0-.26,1.08-26-1.69-41.53-1.29-7.21-2.71-12.48-4-17.12-1.47-5.46-2.64-9.78-2.88-14.8-.44-9.23-1.44-44.34-2.1-67.57a115.42,115.42,0,0,0-1.33-14.86l-.51,0A16.68,16.68,0,0,1,424,202.21c-4.8-4.82-5.8-9.28-7.18-15.45-.37-1.66-.75-3.38-1.24-5.28A.45.45,0,0,1,416,180.92Z" style="fill:#455a64"></path><path d="M452.09,356.49c-3.5,3.36-18.67,5.31-24.11,2.45l2.38,9s3.92,1.92,11.77,1.13c9.1-.92,10.05-3.83,10.05-3.83Z" style="fill:#455a64"></path><path d="M392,351.74c-4.67,1.6-18.52.71-23.65-2.41l.22,7.45s3.57,2.74,11.42,3.49,11-1.41,11-1.41Z" style="fill:#455a64"></path><path d="M404.82,257.13l-5.54-40.74a25.76,25.76,0,0,1-20.69-9.72s-.24,10.2,16.57,14.72l6.51,37.54L398,290.48Z"></path></g><g id="freepik--Top--inject-337"><g id="freepik--Backpack--inject-337"><path d="M476.54,150.25c-.64.3-7.19-1.23-13.34-3.62V123.35s8,.8,10.56,9.93C478.14,149,476.54,150.25,476.54,150.25Z" style="fill:#263238"></path><path d="M428.38,112.5c-5.8-.1-12.58,2.77-14.61,7.28-.35.77-2.78,6.7-2.78,6.7-3.26,15.73-9.15,56.23-5,61.25,6.2,7.52,36.69,22.26,50.06,21.84,11-.35,21.67-10.38,23.2-13.41,5-9.94-8.18-65.31-11.67-70.86C461.9,116.29,435.76,112.62,428.38,112.5Z" style="fill:#C53F3F"></path><path d="M406,187.73c6.2,7.52,36.69,22.26,50.06,21.84a24.07,24.07,0,0,0,8.68-2.09c-3.11,1.47-6.77,0-7.78-4.07s-2.71-36.5-2.71-64.28L411,126.48C407.73,142.21,401.84,182.71,406,187.73Z" style="opacity:0.18"></path><path d="M469,128.26a14.32,14.32,0,0,0-1.38-3.47c-5.67-9-31.81-12.68-39.19-12.8-5.8-.1-12.58,2.77-14.61,7.28-.34.74-2.78,6.7-2.78,6.7,11.59,6.15,40.56,12.4,43.64,11.28C458.41,135.88,469,128.26,469,128.26Z" style="opacity:0.5"></path><path d="M476.87,171.07c-.28-.13-4.4-3-4.88-3.23-.84-.39-12.51,8.09-13.57,9.5-.73,1,1.28,21.12,1.79,22.16.18.37,4.7,2.86,4.88,3.23.51,1,12.84-7.6,13.56-9.62S478.11,171.65,476.87,171.07Z" style="fill:#C53F3F"></path><path d="M476.87,171.07c-.28-.13-4.4-3-4.88-3.23-.84-.39-12.51,8.09-13.57,9.5-.73,1,1.28,21.12,1.79,22.16.18.37,4.7,2.86,4.88,3.23.51,1,12.84-7.6,13.56-9.62S478.11,171.65,476.87,171.07Z" style="opacity:0.18"></path><path d="M463.31,180.58c-.74,1,1.28,21.11,1.78,22.15s12.84-7.6,13.56-9.62-.54-21.46-1.78-22C476,170.68,464.36,179.17,463.31,180.58Z" style="fill:#C53F3F"></path><path d="M472,167.84c.47.21,4.59,3.11,4.87,3.23-.83-.39-12.51,8.1-13.56,9.5l-4.89-3.23C459.48,175.93,471.15,167.44,472,167.84Z" style="opacity:0.4"></path><path d="M463.31,180.58c-.74,1,1.28,21.11,1.78,22.15s12.84-7.6,13.56-9.62-.54-21.46-1.78-22C476,170.68,464.36,179.17,463.31,180.58Z" style="opacity:0.30000000000000004"></path><path d="M458.42,177.34c.87-.61,3.58.71,4.76,1.66s2.59,5.53,5.58,6.16,7-3.43,7.83-6,1.64-7.85.14-9.68-4-2.77-6.1-1.56S458.6,175,458.42,177.34Z" style="fill:#C53F3F"></path><path d="M458.42,177.34c.87-.61,3.58.71,4.76,1.66s2.59,5.53,5.58,6.16,7-3.43,7.83-6,1.64-7.85.14-9.68-4-2.77-6.1-1.56S458.6,175,458.42,177.34Z" style="opacity:0.1"></path><path d="M471.43,179.64a2.21,2.21,0,0,0-1,2.08.89.89,0,0,0,1.38.74,2.15,2.15,0,0,0,1-2.08C472.69,179.59,472.07,179.26,471.43,179.64Z" style="fill:#37474f"></path><path d="M454.23,138.62s4.08-2.8,9-5.65,7.71-3.84,9.47,1.9a129.19,129.19,0,0,1,3.82,15.38c.95-.45.85-2.16.19-9.48-1-10.66.39-15.41-10.64-19.68-17.1-6.61-31.46-11.81-41.24-9.62S412.77,119.14,411,126C411,126,422.88,136.76,454.23,138.62Z" style="fill:#37474f"></path></g><path d="M386.64,112.77c-9.12,2.68-12.77,6.32-17.5,14.23-4.85,8.1-13.33,21.6-20.63,34l-24.43-6.82-7.59,14.71s28.09,13,34.5,13.74,8.34-1.26,12.64-6.19c4.79-5.49,20.09-26.57,20.09-26.57Z" style="fill:#c8856a"></path><path d="M387.14,111.8c-11.77,3.11-14.54,8.76-19.16,16.12S348.51,161,348.51,161s3.3.55,8.24,4.47c6.39,5.07,8.18,9.56,8.18,9.56s5.15-6,8.87-10.64c10-12.54,10.56-13.24,10.56-13.24Z" style="fill:#C53F3F"></path><path d="M387.14,111.8c-11.77,3.11-14.54,8.76-19.16,16.12S348.51,161,348.51,161s3.3.55,8.24,4.47c6.39,5.07,8.18,9.56,8.18,9.56s5.15-6,8.87-10.64c10-12.54,10.56-13.24,10.56-13.24Z" style="fill:#fff;opacity:0.6000000000000001"></path><path d="M297,130.31h0l1.46-1.5v0a1.8,1.8,0,0,1,1.61-.32l17.54,3.18a6.37,6.37,0,0,1,4.17,3.27l15.4,34.53a1.61,1.61,0,0,1-.07,1.83h0l-1.52,1.54v0a1.78,1.78,0,0,1-1.62.34L316.44,170a6.36,6.36,0,0,1-4.16-3.27l-15.41-34.53A1.58,1.58,0,0,1,297,130.31Z" style="fill:#455a64"></path><path d="M318.09,134a6.22,6.22,0,0,1,2.22,2.45L335.72,171a1.72,1.72,0,0,1,0,1.8l1.42-1.44v0a1.62,1.62,0,0,0,.07-1.84L321.77,135a6,6,0,0,0-2-2.31Z" style="fill:#263238"></path><path d="M335.71,171l-15.4-34.53a6.33,6.33,0,0,0-4.17-3.26L298.6,130c-1.63-.29-2.4.69-1.73,2.2l15.41,34.53a6.36,6.36,0,0,0,4.16,3.27L334,173.2C335.61,173.49,336.39,172.51,335.71,171Z" style="fill:#37474f"></path><path d="M320.93,143.94l-2.88-6.46a1.17,1.17,0,0,0-.78-.61l-3.29-.6c-.3-.06-.45.13-.32.41.57,1.27,2.32,5.19,2.88,6.46a1.21,1.21,0,0,0,.78.62l3.29.59C320.91,144.41,321.05,144.22,320.93,143.94Z" style="fill:#455a64"></path><path d="M318,139.08a3,3,0,0,0-2-1.5c-.78-.14-1.17.3-.86,1a3,3,0,0,0,2,1.5C317.94,140.21,318.33,139.77,318,139.08Z" style="fill:#263238"></path><path d="M319.44,142.35a3,3,0,0,0-2-1.51c-.79-.14-1.18.3-.87,1a3,3,0,0,0,2,1.5C319.36,143.48,319.75,143,319.44,142.35Z" style="fill:#263238"></path><path d="M301.5,151.41c-2-2.08-1.94-2.42-1.22-3.76a7.48,7.48,0,0,1,5.53-4c2.07-.26,4.14-.63,5.29-.25s.59,2.76-2,3.78c-4.08,1.61-3.87,2.76-3.87,2.76a53.45,53.45,0,0,1,5.31-1.81c1.55-.33,4.52,0,6.35,0s2.54,2.24-.36,3.51h3.35c2.35,0,3.31,1.11,1.74,2.8a3.42,3.42,0,0,1-1.95,1.11s2.44-.39,2.61.42c.51,2.3-.9,3.14-5.6,5.34-4.49,2.1-5.06,4.78-3.85,6.38,0,0-2.07-.81-3.93-1.71-1.37-.66-2.57-1.45-2.31-3.47,0,0-2.68.48-3.1-1.16a8.75,8.75,0,0,1,.09-3.66,3,3,0,0,1-1.91-2.52,4.86,4.86,0,0,1,.52-3.07Z" style="fill:#c8856a"></path><path d="M316.53,151.6a15.43,15.43,0,0,0-3,.14,9.82,9.82,0,0,0-2.73,1.36,35.87,35.87,0,0,0-4.75,3.59,35.84,35.84,0,0,0,5.21-2.84,16.27,16.27,0,0,1,2.46-1.45C314.57,152.11,315.59,151.93,316.53,151.6Z" style="fill:#af6152"></path><path d="M319.67,155.52a6.62,6.62,0,0,0-3.23.4,17.9,17.9,0,0,0-2.91,1.44,31,31,0,0,0-5.12,3.87c1.95-.92,3.76-2,5.58-3.12A16.91,16.91,0,0,1,319.67,155.52Z" style="fill:#af6152"></path><path d="M442.83,196.64c-5-14.48-8.15-22.84-8.28-27.44,0,0,4.17-23.1,4.77-28.54,1.55-14.17-1-20.82-3.84-22.33-1.65-.87-8.4-2.86-10.56-3.47-9.81-2.8-23.86-3.15-33-3-3.42.18-4.48.3-4.48.3a83.62,83.62,0,0,0-12.31,11.23c-7.26,8.42-9.53,14.08-8.37,22.75a20.73,20.73,0,0,0,4.8,10.2c.56,4.19,1.47,16.07,1.47,16.07-.11,4.67.22,4.56-2.14,15.8C378.32,210.36,427.82,209,442.83,196.64Z" style="fill:#fafafa"></path><g id="freepik--Head--inject-337"><path d="M420.66,54a12.35,12.35,0,0,1,13.63,2.84c3.4,3.66,4.19,9,4.73,13.92q1.43,12.9,2.14,25.86c.21,3.87.92,7.69,1.27,11.58q.58,6.54.94,13.1a4.84,4.84,0,0,1-.59,3.24,4.29,4.29,0,0,1-2.67,1.34,19.81,19.81,0,0,1-14.19-2.47c-6.64-4-10.34-11.89-10.85-19.65-.33-5,.53-10,1.38-15a105.37,105.37,0,0,1,2.27-10.87c.64-2.26,1.44-4.48,2-6.76a29.17,29.17,0,0,0-.33-14.23" style="fill:#263238"></path><path d="M425.67,54a14.28,14.28,0,0,1,4.76,7.66,4,4,0,0,1,0,2.43,3,3,0,0,1-3.13,1.62A6,6,0,0,1,424,63.91a12.38,12.38,0,0,1-3.72-7c-.2-1.24-.08-3.21,1.12-4C422.8,52,424.61,53.07,425.67,54Z" style="fill:#C53F3F"></path><path d="M379.32,72.67c-2.88-6.09-.49-14.36,2.61-18.3,4.48-5.7,11.65-8.31,22.57-8,8.31.27,18.36,3.66,20.17,12.13,7.8,3.65,5.4,14.41,3.49,19-4,9.55-9.91,17.11-9.87,22.13Z" style="fill:#263238"></path><path d="M383.78,59.68c-1.86,1.46-4.93,5.55-4.46,13,.25,2.25-.47,5-.47,9.24,0,15.91,4.41,19.23,8.71,21.11,2.57,1.12,4,1.3,8.08,1.25v7.38s-9.31,14.53-5.08,27.25h0c19.32-13.1,27.81-28.42,27.82-28.45l.14-17.95s0,0,0,0,2.55,2.22,6.55.06c4.34-2.35,6-9.67,3.18-13s-6.9-1.29-8.69,1.69-6.25,2.14-4.92-2.38c-2-1-4.57-3-2.71-11.34.42-2.13-.37-5.8-2.38-7.59-3.37-3-9.92-2.3-13.62,1.43C390.87,57.19,387.63,56.66,383.78,59.68Z" style="fill:#c8856a"></path><path d="M399.62,89.23l-7.35,2.59a3.75,3.75,0,0,0,4.84,2.46A4.1,4.1,0,0,0,399.62,89.23Z" style="fill:#af6152"></path><path d="M395.41,94.45A3.5,3.5,0,0,1,398.89,91a3.34,3.34,0,0,1,.84.12,4.06,4.06,0,0,1-2.62,3.18A3.68,3.68,0,0,1,395.41,94.45Z" style="fill:#ffa8a7"></path><polygon points="393.75 73.02 392.75 87.22 385.66 83.87 393.75 73.02" style="fill:#af6152"></polygon><path d="M395.64,104.27c5.11-.28,16-3.08,18.67-9.86,0,0-.4,4.84-6.66,8.59-4.94,3-12,3.57-12,3.57Z" style="fill:#af6152"></path><path d="M399.54,77.49a2.26,2.26,0,0,0,4.5-.41,2.26,2.26,0,1,0-4.5.41Z" style="fill:#263238"></path><path d="M382.69,76.92a2.26,2.26,0,1,0,1.69-2.71A2.25,2.25,0,0,0,382.69,76.92Z" style="fill:#263238"></path><path d="M383.53,68.08a3.23,3.23,0,0,1,3.9,2.39L381.15,72A3.24,3.24,0,0,1,383.53,68.08Z" style="fill:#263238"></path><path d="M404.72,69.28a3.24,3.24,0,0,1,1.71,4.24L400.48,71A3.24,3.24,0,0,1,404.72,69.28Z" style="fill:#263238"></path><path d="M385.17,51.15h24.24c16.38,6.45,10.35,27.51,6.93,30.08-9.73-4.1-9.1-13.81-8.38-19.34-4.93,4.62-13.15,8-17,8.43,1.79-2.15,3.29-7.48,3.29-7.48a19.75,19.75,0,0,1-7.67,8.29c-6,3.45-10.08,1.15-10.08,1.15S374.46,57.65,385.17,51.15Z" style="fill:#263238"></path></g><path d="M416.88,109.42a50.7,50.7,0,0,1-2.21,9.13c-2,6.32-2.68,11.37-3.07,24.9s4.54,76.76,3.09,92.06c10.05,0,26.08-6.67,33.57-14.78a172.39,172.39,0,0,0-5.43-30.57c-3.59-13.67-7.33-14.76-6.57-22.09s7.7-36.44,1.76-51.31a82.05,82.05,0,0,1-10.38-2C418.11,112.44,416.88,109.42,416.88,109.42Z" style="fill:#C53F3F"></path><path d="M416.88,109.42a50.7,50.7,0,0,1-2.21,9.13c-2,6.32-2.68,11.37-3.07,24.9s4.54,76.76,3.09,92.06c10.05,0,26.08-6.67,33.57-14.78a172.39,172.39,0,0,0-5.43-30.57c-3.59-13.67-7.33-14.76-6.57-22.09s7.7-36.44,1.76-51.31a82.05,82.05,0,0,1-10.38-2C418.11,112.44,416.88,109.42,416.88,109.42Z" style="fill:#fff;opacity:0.4"></path><path d="M395.45,108.7l-.35,1.37c0,3.88-8,10-13.58,19.19S375,147.32,375.42,159s-2.66,55.5-3.84,61.22a15.89,15.89,0,0,1-6.65-9.53c.93-6.93,2.6-19,3.6-23.2s.93-11.1.93-19.75a76.82,76.82,0,0,0-.7-11.2s-5.52-6.87-2.29-19.62,20.67-25.12,20.67-25.12a33.38,33.38,0,0,1,3.42-.84A18.81,18.81,0,0,0,395.45,108.7Z" style="fill:#C53F3F"></path><path d="M395.45,108.7l-.35,1.37c0,3.88-8,10-13.58,19.19S375,147.32,375.42,159s-2.66,55.5-3.84,61.22a15.89,15.89,0,0,1-6.65-9.53c.93-6.93,2.6-19,3.6-23.2s.93-11.1.93-19.75a76.82,76.82,0,0,0-.7-11.2s-5.52-6.87-2.29-19.62,20.67-25.12,20.67-25.12a33.38,33.38,0,0,1,3.42-.84A18.81,18.81,0,0,0,395.45,108.7Z" style="fill:#fff;opacity:0.4"></path><path d="M418.35,104a19.38,19.38,0,0,0,6.18,9.89s-2.63,12.29-2.17,18.32,1.68,11.88,0,11.84a44.6,44.6,0,0,1-6.69-1.58s4,5.89,3.63,7.73-6.62,22.56-6.62,22.56-2.61-24-2.2-31,1.67-19.93,4.17-27.32C416.42,109.25,418.35,104,418.35,104Z" style="fill:#C53F3F"></path><path d="M375.23,169.42c-.35-6.75-3.88-23.67-4.34-27s4.34-6.45,4.34-6.45-2.89.74-3.84,0,4.86-9.17,9.83-14.74,14.44-14,14.44-14l0,4.46a64,64,0,0,0-7.25,9.53C384.06,128.35,376,136.13,375.23,169.42Z" style="fill:#C53F3F"></path><path d="M428.77,114.91s-10.3,8.82-11.93,25.78c-4.11,42.89,27.28,51.67,27.28,51.67a83.22,83.22,0,0,0-2.59-10.8s-18.47-16.92-16.42-38.84c1.46-15.63,8.94-25,12.91-26A93.74,93.74,0,0,0,428.77,114.91Z" style="fill:#37474f"></path><path d="M449.58,193c-4.11-1.43-6.81-3.16-11-7-7.75-7.1-8.17-8.15-14.6-14.42-2.18-2.12-4.14-4.23-5.06-5.19s-3.3-2.73-4.85-5.34c-1.05-1.77-2.43-4-2.62-6.11-.2-2.32-.93-4.7-.39-7,.16-.68.42-1.33.55-2a16.15,16.15,0,0,0,.13-2.87,13.8,13.8,0,0,1,.84-4.94,8.79,8.79,0,0,1,2.43-3.43,3.05,3.05,0,0,1,3-.91c-.3,1.24-.52,2.28-.79,3.73a10.48,10.48,0,0,0,2.35,5.62c2.37,3.42,4.45,5.24,4.79,4.58s-.51-2.77,0-6.13c.46-3.2,1.46-4.52,2.5-4.73,1.66-.34,1.57,1.44,2.13,4.16.67,3.24,2,5.07,1.92,9.81,0,4.16-.77,5.09,1.47,7,1.28,1.13,5.68,3.85,5.68,3.85s-1.06-4.57-2.79-12.38c-3.35-15.15-3.33-30,2.68-32,7.22,2.13,14.24,6.2,17.42,18.57,3.39,13.15,3.4,15.11,6.25,41.07C463.72,195.82,455.81,195.18,449.58,193Z" style="fill:#c8856a"></path><path d="M438.09,161.67c5.11,4.18,16.43,10.4,17.64,16.76,0,0,0-5-6.68-11.31a94.55,94.55,0,0,0-11.93-9.68Z" style="fill:#af6152"></path><path d="M438,116.76c5.05,1.18,11.4,4.56,14.37,10.1s3.75,9.49,5.63,17.59,4.82,36.29,4,37.45c-5.28-8-11.93-15.24-23.89-20.23,0,0-3.23-11.68-4.51-19.64S429.77,120.59,438,116.76Z" style="fill:#C53F3F"></path><path d="M438,116.76c5.05,1.18,11.4,4.56,14.37,10.1s3.75,9.49,5.63,17.59,4.82,36.29,4,37.45c-5.28-8-11.93-15.24-23.89-20.23,0,0-3.23-11.68-4.51-19.64S429.77,120.59,438,116.76Z" style="fill:#fff;opacity:0.6000000000000001"></path></g></g></g><g id="freepik--speech-bubble--inject-337"><g id="freepik--speech-bubble--inject-337"><g id="freepik--speech-bubble--inject-337"><path d="M354.7,104.36a.6.6,0,0,0-.57-.4A16.12,16.12,0,0,1,342.36,98a34.77,34.77,0,0,0,10.25-24.76,35.1,35.1,0,1,0-35.1,35.1,34.65,34.65,0,0,0,14.29-3.07c7.35,4,17.69,3.87,22.71-.24A.61.61,0,0,0,354.7,104.36Zm-22.57-.29a.73.73,0,0,0-.55,0,33.55,33.55,0,0,1-14.07,3.09,33.93,33.93,0,1,1,23.62-9.62.62.62,0,0,0-.07.8A17.56,17.56,0,0,0,352.34,105C347.26,107.86,338.36,107.54,332.13,104.07Z" style="fill:#455a64"></path><path d="M352.34,105c-5.08,2.82-14,2.5-20.21-1a.73.73,0,0,0-.55,0,33.55,33.55,0,0,1-14.07,3.09,33.93,33.93,0,1,1,23.62-9.62.62.62,0,0,0-.07.8A17.56,17.56,0,0,0,352.34,105Z" style="fill:#fff"></path></g><path d="M342,67.22H330.59V63.79a1.35,1.35,0,1,0-2.69,0v3.43H316.49a1.35,1.35,0,1,0,0,2.69h18.35c-.54,3-2.79,6.55-5.86,9.69a28.31,28.31,0,0,1-3.86-4.67,1.35,1.35,0,0,0-2.29,1.43A31.41,31.41,0,0,0,327,81.45a28.61,28.61,0,0,1-9.62,5.67,1.35,1.35,0,0,0,.42,2.63,1.51,1.51,0,0,0,.41-.06A31.33,31.33,0,0,0,329,83.33c3.5,3.12,7.57,5.77,10.68,6.39a1.24,1.24,0,0,0,.27,0,1.35,1.35,0,0,0,1.32-1.08,1.36,1.36,0,0,0-1.06-1.59c-2.56-.51-6.11-2.85-9.25-5.61,3.57-3.66,6.1-7.87,6.61-11.56H342a1.35,1.35,0,1,0,0-2.69Z" style="fill:#C53F3F"></path><path d="M309.49,73.39H297.72L296,77.9a1.93,1.93,0,0,1-.37.56,1.3,1.3,0,0,1-.95.29h-1.26a.74.74,0,0,1-.53-.23.72.72,0,0,1-.21-.52,1.24,1.24,0,0,1,.13-.47l8.31-21.4a2.59,2.59,0,0,1,.51-.74,1.28,1.28,0,0,1,1-.38h2a1.28,1.28,0,0,1,1,.38,2.59,2.59,0,0,1,.51.74l8.28,21.4a1.46,1.46,0,0,1,.13.47.69.69,0,0,1-.22.52.71.71,0,0,1-.52.23h-1.26a1.28,1.28,0,0,1-.95-.29,1.75,1.75,0,0,1-.37-.56Zm-10.58-3h9.39l-4.68-12.11Z" style="fill:#C53F3F"></path></g></g></svg>